// MIDI class that uses midi-parser.js to read to content of a midi file and covert it to a human-readable JS object
// ! Not complete
class Midi
{
    header = {};

    constructor(source, readyCallback)
    {
        MidiParser.parse(source, (obj) => 
        {
            switch(obj.formatType)
            {
                case 0:
                    break;
                case 1:
                    break;
                case 2:
                    break;
            }
        });

        readyCallback(midi);
    }
}

// Obtained here: https://www.visipiano.com/midi-to-json-converter/
const testMidi = {
  "header": {
    "PPQ": 1024,
    "timeSignature": [
      4,
      4
    ],
    "bpm": 135.99952853496774,
    "name": ""
  },
  "tempo": [
    {
      "absoluteTime": 0,
      "seconds": 0,
      "bpm": 135.99952853496774
    },
    {
      "absoluteTime": 0,
      "seconds": 0,
      "bpm": 135.99952853496774
    },
    {
      "absoluteTime": 0,
      "seconds": 0,
      "bpm": 135.99613770968904
    },
    {
      "absoluteTime": 16384,
      "seconds": 7.058848,
      "bpm": 135.99613770968904
    },
    {
      "absoluteTime": 43008,
      "seconds": 18.529476,
      "bpm": 135.99613770968904
    },
    {
      "absoluteTime": 43264,
      "seconds": 18.639770499999997,
      "bpm": 134.9992237544634
    },
    {
      "absoluteTime": 43520,
      "seconds": 18.750064999999996,
      "bpm": 134.47246452168145
    },
    {
      "absoluteTime": 43776,
      "seconds": 18.860359499999994,
      "bpm": 133.47659821541788
    },
    {
      "absoluteTime": 44032,
      "seconds": 18.970653999999993,
      "bpm": 132.94896310887856
    },
    {
      "absoluteTime": 44288,
      "seconds": 19.08094849999999,
      "bpm": 131.9531038668857
    },
    {
      "absoluteTime": 44544,
      "seconds": 19.19124299999999,
      "bpm": 131.4837946223128
    },
    {
      "absoluteTime": 44800,
      "seconds": 19.301537499999988,
      "bpm": 130.48754496383322
    },
    {
      "absoluteTime": 45312,
      "seconds": 19.522126499999988,
      "bpm": 135.99613770968904
    },
    {
      "absoluteTime": 98304,
      "seconds": 42.353087999999985,
      "bpm": 135.99613770968904
    },
    {
      "absoluteTime": 124928,
      "seconds": 53.82371599999998,
      "bpm": 135.99613770968904
    },
    {
      "absoluteTime": 125184,
      "seconds": 53.934010499999985,
      "bpm": 134.9992237544634
    },
    {
      "absoluteTime": 125440,
      "seconds": 54.04430499999999,
      "bpm": 134.47246452168145
    },
    {
      "absoluteTime": 125696,
      "seconds": 54.15459949999999,
      "bpm": 133.47659821541788
    },
    {
      "absoluteTime": 125952,
      "seconds": 54.26489399999999,
      "bpm": 132.94896310887856
    },
    {
      "absoluteTime": 126208,
      "seconds": 54.37518849999999,
      "bpm": 131.9531038668857
    },
    {
      "absoluteTime": 126464,
      "seconds": 54.485482999999995,
      "bpm": 131.4837946223128
    },
    {
      "absoluteTime": 126720,
      "seconds": 54.5957775,
      "bpm": 130.48754496383322
    },
    {
      "absoluteTime": 127232,
      "seconds": 54.816366499999994,
      "bpm": 135.99613770968904
    }
  ],
  "timeSignature": [
    {
      "absoluteTime": 0,
      "seconds": 0,
      "numerator": 4,
      "denominator": 2,
      "click": 24,
      "notesQ": 8
    }
  ],
  "startTime": 0,
  "duration": 77.63397202539043,
  "tracks": [
    {
      "startTime": 0,
      "duration": 0,
      "length": 0,
      "notes": [],
      "controlChanges": {},
      "id": 0
    },
    {
      "startTime": 0,
      "duration": 0,
      "length": 0,
      "notes": [],
      "controlChanges": {},
      "id": 1
    },
    {
      "startTime": 0.00430837890625,
      "duration": 77.63397202539043,
      "length": 942,
      "notes": [
        {
          "name": "C4",
          "midi": 60,
          "time": 0.00430837890625,
          "velocity": 0.6692913385826772,
          "duration": 0.6669370546875001
        },
        {
          "name": "F4",
          "midi": 65,
          "time": 0.00430837890625,
          "velocity": 0.6692913385826772,
          "duration": 0.6669370546875001
        },
        {
          "name": "A#4",
          "midi": 70,
          "time": 0.00430837890625,
          "velocity": 0.7480314960629921,
          "duration": 0.6669370546875001
        },
        {
          "name": "C3",
          "midi": 48,
          "time": 0.00430837890625,
          "velocity": 0.7322834645669292,
          "duration": 0.449363919921875
        },
        {
          "name": "C3",
          "midi": 48,
          "time": 0.45410313671875,
          "velocity": 0.5433070866141733,
          "duration": 0.14648488281250005
        },
        {
          "name": "F3",
          "midi": 53,
          "time": 0.45410313671875,
          "velocity": 0.6220472440944882,
          "duration": 0.14648488281250005
        },
        {
          "name": "C3",
          "midi": 48,
          "time": 0.6010188574218751,
          "velocity": 0.5354330708661418,
          "duration": 0.14131482812499996
        },
        {
          "name": "F3",
          "midi": 53,
          "time": 0.6010188574218751,
          "velocity": 0.6141732283464567,
          "duration": 0.14131482812499996
        },
        {
          "name": "C3",
          "midi": 48,
          "time": 0.7427645234375001,
          "velocity": 0.6220472440944882,
          "duration": 0.1568249921875
        },
        {
          "name": "F3",
          "midi": 53,
          "time": 0.7427645234375001,
          "velocity": 0.5826771653543307,
          "duration": 0.14820823437499997
        },
        {
          "name": "A#2",
          "midi": 46,
          "time": 0.8914035957031251,
          "velocity": 0.7401574803149606,
          "duration": 0.43686962109375005
        },
        {
          "name": "F3",
          "midi": 53,
          "time": 0.8914035957031251,
          "velocity": 0.7007874015748031,
          "duration": 0.43686962109375005
        },
        {
          "name": "C4",
          "midi": 60,
          "time": 1.2179787167968752,
          "velocity": 0.6299212598425197,
          "duration": 0.11029449999999996
        },
        {
          "name": "F4",
          "midi": 65,
          "time": 1.2179787167968752,
          "velocity": 0.6299212598425197,
          "duration": 0.11029449999999996
        },
        {
          "name": "A#4",
          "midi": 70,
          "time": 1.2179787167968752,
          "velocity": 0.7086614173228346,
          "duration": 0.11029449999999996
        },
        {
          "name": "C4",
          "midi": 60,
          "time": 1.3287040546875002,
          "velocity": 0.5433070866141733,
          "duration": 0.14605404492187501
        },
        {
          "name": "F4",
          "midi": 65,
          "time": 1.3287040546875002,
          "velocity": 0.5433070866141733,
          "duration": 0.14605404492187501
        },
        {
          "name": "A#4",
          "midi": 70,
          "time": 1.3287040546875002,
          "velocity": 0.6220472440944882,
          "duration": 0.14605404492187501
        },
        {
          "name": "C4",
          "midi": 60,
          "time": 1.4751889375000002,
          "velocity": 0.5354330708661418,
          "duration": 0.14174566601562488
        },
        {
          "name": "F4",
          "midi": 65,
          "time": 1.4751889375000002,
          "velocity": 0.5354330708661418,
          "duration": 0.14174566601562488
        },
        {
          "name": "A#4",
          "midi": 70,
          "time": 1.4751889375000002,
          "velocity": 0.6141732283464567,
          "duration": 0.14174566601562488
        },
        {
          "name": "C4",
          "midi": 60,
          "time": 1.6173654414062502,
          "velocity": 0.5354330708661418,
          "duration": 0.14691572070312509
        },
        {
          "name": "F4",
          "midi": 65,
          "time": 1.6173654414062502,
          "velocity": 0.5354330708661418,
          "duration": 0.14691572070312509
        },
        {
          "name": "A#4",
          "midi": 70,
          "time": 1.6173654414062502,
          "velocity": 0.6141732283464567,
          "duration": 0.14691572070312509
        },
        {
          "name": "C4",
          "midi": 60,
          "time": 1.7664353515625002,
          "velocity": 0.6692913385826772,
          "duration": 0.2201581621093751
        },
        {
          "name": "F4",
          "midi": 65,
          "time": 1.7664353515625002,
          "velocity": 0.6692913385826772,
          "duration": 0.2201581621093751
        },
        {
          "name": "A#4",
          "midi": 70,
          "time": 1.7664353515625002,
          "velocity": 0.7795275590551181,
          "duration": 0.23308329882812506
        },
        {
          "name": "G#2",
          "midi": 44,
          "time": 1.7664353515625002,
          "velocity": 0.7322834645669292,
          "duration": 0.45194894726562507
        },
        {
          "name": "C4",
          "midi": 60,
          "time": 2.1072281230468755,
          "velocity": 0.6299212598425197,
          "duration": 0.11115617578124981
        },
        {
          "name": "F4",
          "midi": 65,
          "time": 2.1072281230468755,
          "velocity": 0.6299212598425197,
          "duration": 0.11115617578124981
        },
        {
          "name": "G#4",
          "midi": 68,
          "time": 2.1072281230468755,
          "velocity": 0.7401574803149606,
          "duration": 0.11115617578124981
        },
        {
          "name": "C4",
          "midi": 60,
          "time": 2.2188151367187503,
          "velocity": 0.6377952755905512,
          "duration": 0.6436718085937501
        },
        {
          "name": "F4",
          "midi": 65,
          "time": 2.2188151367187503,
          "velocity": 0.6377952755905512,
          "duration": 0.6436718085937501
        },
        {
          "name": "A#4",
          "midi": 70,
          "time": 2.2188151367187503,
          "velocity": 0.7480314960629921,
          "duration": 0.6565969453125002
        },
        {
          "name": "C3",
          "midi": 48,
          "time": 2.2188151367187503,
          "velocity": 0.7007874015748031,
          "duration": 0.43686962109374994
        },
        {
          "name": "G#2",
          "midi": 44,
          "time": 2.6561155957031253,
          "velocity": 0.7165354330708661,
          "duration": 0.4368696210937504
        },
        {
          "name": "C4",
          "midi": 60,
          "time": 2.9826907167968755,
          "velocity": 0.6299212598425197,
          "duration": 0.11029450000000018
        },
        {
          "name": "F4",
          "midi": 65,
          "time": 2.9826907167968755,
          "velocity": 0.6299212598425197,
          "duration": 0.11029450000000018
        },
        {
          "name": "A#4",
          "midi": 70,
          "time": 2.9826907167968755,
          "velocity": 0.7086614173228346,
          "duration": 0.11029450000000018
        },
        {
          "name": "C4",
          "midi": 60,
          "time": 3.0934160546875007,
          "velocity": 0.5433070866141733,
          "duration": 0.14605404492187501
        },
        {
          "name": "F4",
          "midi": 65,
          "time": 3.0934160546875007,
          "velocity": 0.5433070866141733,
          "duration": 0.14605404492187501
        },
        {
          "name": "A#4",
          "midi": 70,
          "time": 3.0934160546875007,
          "velocity": 0.6220472440944882,
          "duration": 0.14605404492187501
        },
        {
          "name": "C4",
          "midi": 60,
          "time": 3.2399009375000007,
          "velocity": 0.5354330708661418,
          "duration": 0.1417456660156251
        },
        {
          "name": "F4",
          "midi": 65,
          "time": 3.2399009375000007,
          "velocity": 0.5354330708661418,
          "duration": 0.1417456660156251
        },
        {
          "name": "A#4",
          "midi": 70,
          "time": 3.2399009375000007,
          "velocity": 0.6141732283464567,
          "duration": 0.1417456660156251
        },
        {
          "name": "C4",
          "midi": 60,
          "time": 3.382077441406251,
          "velocity": 0.5354330708661418,
          "duration": 0.14691572070312509
        },
        {
          "name": "F4",
          "midi": 65,
          "time": 3.382077441406251,
          "velocity": 0.5354330708661418,
          "duration": 0.14691572070312509
        },
        {
          "name": "A#4",
          "midi": 70,
          "time": 3.382077441406251,
          "velocity": 0.6141732283464567,
          "duration": 0.14691572070312509
        },
        {
          "name": "C4",
          "midi": 60,
          "time": 3.531147351562501,
          "velocity": 0.6692913385826772,
          "duration": 0.2201581621093749
        },
        {
          "name": "F4",
          "midi": 65,
          "time": 3.531147351562501,
          "velocity": 0.6692913385826772,
          "duration": 0.2201581621093749
        },
        {
          "name": "A#4",
          "midi": 70,
          "time": 3.531147351562501,
          "velocity": 0.7795275590551181,
          "duration": 0.23308329882812506
        },
        {
          "name": "F#2",
          "midi": 42,
          "time": 3.531147351562501,
          "velocity": 0.7322834645669292,
          "duration": 0.45194894726562485
        },
        {
          "name": "C4",
          "midi": 60,
          "time": 3.871940123046876,
          "velocity": 0.6299212598425197,
          "duration": 0.11115617578124981
        },
        {
          "name": "F4",
          "midi": 65,
          "time": 3.871940123046876,
          "velocity": 0.6299212598425197,
          "duration": 0.11115617578124981
        },
        {
          "name": "G#4",
          "midi": 68,
          "time": 3.871940123046876,
          "velocity": 0.7401574803149606,
          "duration": 0.11115617578124981
        },
        {
          "name": "C4",
          "midi": 60,
          "time": 3.983527136718751,
          "velocity": 0.6377952755905512,
          "duration": 0.6436718085937501
        },
        {
          "name": "F4",
          "midi": 65,
          "time": 3.983527136718751,
          "velocity": 0.6377952755905512,
          "duration": 0.6436718085937501
        },
        {
          "name": "A#4",
          "midi": 70,
          "time": 3.983527136718751,
          "velocity": 0.7480314960629921,
          "duration": 0.6565969453125002
        },
        {
          "name": "C3",
          "midi": 48,
          "time": 3.983527136718751,
          "velocity": 0.7007874015748031,
          "duration": 0.43686962109374994
        },
        {
          "name": "F#2",
          "midi": 42,
          "time": 4.420827595703126,
          "velocity": 0.7165354330708661,
          "duration": 0.4368696210937504
        },
        {
          "name": "C4",
          "midi": 60,
          "time": 4.747402716796876,
          "velocity": 0.6299212598425197,
          "duration": 0.11029450000000018
        },
        {
          "name": "F4",
          "midi": 65,
          "time": 4.747402716796876,
          "velocity": 0.6299212598425197,
          "duration": 0.11029450000000018
        },
        {
          "name": "A#4",
          "midi": 70,
          "time": 4.747402716796876,
          "velocity": 0.7086614173228346,
          "duration": 0.11029450000000018
        },
        {
          "name": "C4",
          "midi": 60,
          "time": 4.858128054687501,
          "velocity": 0.5433070866141733,
          "duration": 0.14605404492187546
        },
        {
          "name": "F4",
          "midi": 65,
          "time": 4.858128054687501,
          "velocity": 0.5433070866141733,
          "duration": 0.14605404492187546
        },
        {
          "name": "A#4",
          "midi": 70,
          "time": 4.858128054687501,
          "velocity": 0.6220472440944882,
          "duration": 0.14605404492187546
        },
        {
          "name": "C4",
          "midi": 60,
          "time": 5.004612937500002,
          "velocity": 0.5354330708661418,
          "duration": 0.1417456660156251
        },
        {
          "name": "F4",
          "midi": 65,
          "time": 5.004612937500002,
          "velocity": 0.5354330708661418,
          "duration": 0.1417456660156251
        },
        {
          "name": "A#4",
          "midi": 70,
          "time": 5.004612937500002,
          "velocity": 0.6141732283464567,
          "duration": 0.1417456660156251
        },
        {
          "name": "C4",
          "midi": 60,
          "time": 5.146789441406252,
          "velocity": 0.5354330708661418,
          "duration": 0.14691572070312464
        },
        {
          "name": "F4",
          "midi": 65,
          "time": 5.146789441406252,
          "velocity": 0.5354330708661418,
          "duration": 0.14691572070312464
        },
        {
          "name": "A#4",
          "midi": 70,
          "time": 5.146789441406252,
          "velocity": 0.6141732283464567,
          "duration": 0.14691572070312464
        },
        {
          "name": "C4",
          "midi": 60,
          "time": 5.295859351562502,
          "velocity": 0.6692913385826772,
          "duration": 0.1008160664062503
        },
        {
          "name": "F4",
          "midi": 65,
          "time": 5.295859351562502,
          "velocity": 0.6692913385826772,
          "duration": 0.08789092968750012
        },
        {
          "name": "A#4",
          "midi": 70,
          "time": 5.295859351562502,
          "velocity": 0.7795275590551181,
          "duration": 0.1008160664062503
        },
        {
          "name": "F2",
          "midi": 41,
          "time": 5.295859351562502,
          "velocity": 0.7322834645669292,
          "duration": 0.45194894726562573
        },
        {
          "name": "F3",
          "midi": 53,
          "time": 5.529373488281252,
          "velocity": 0.6299212598425197,
          "duration": 0.040498761718749776
        },
        {
          "name": "A3",
          "midi": 57,
          "time": 5.529373488281252,
          "velocity": 0.6299212598425197,
          "duration": 0.03403619335937513
        },
        {
          "name": "F4",
          "midi": 65,
          "time": 5.529373488281252,
          "velocity": 0.7401574803149606,
          "duration": 0.040498761718749776
        },
        {
          "name": "F#3",
          "midi": 54,
          "time": 5.636652123046877,
          "velocity": 0.7165354330708661,
          "duration": 0.04480714062500013
        },
        {
          "name": "A#3",
          "midi": 58,
          "time": 5.636652123046877,
          "velocity": 0.7165354330708661,
          "duration": 0.04480714062500013
        },
        {
          "name": "F4",
          "midi": 65,
          "time": 5.636652123046877,
          "velocity": 0.6771653543307087,
          "duration": 0.04480714062500013
        },
        {
          "name": "G3",
          "midi": 55,
          "time": 5.748239136718753,
          "velocity": 0.7244094488188977,
          "duration": 0.08487506445312487
        },
        {
          "name": "A#3",
          "midi": 58,
          "time": 5.748239136718753,
          "velocity": 0.6377952755905512,
          "duration": 0.08487506445312487
        },
        {
          "name": "F4",
          "midi": 65,
          "time": 5.748239136718753,
          "velocity": 0.6850393700787402,
          "duration": 0.08487506445312487
        },
        {
          "name": "F2",
          "midi": 41,
          "time": 5.748239136718753,
          "velocity": 0.7007874015748031,
          "duration": 0.4368696210937495
        },
        {
          "name": "G3",
          "midi": 55,
          "time": 5.965812271484378,
          "velocity": 0.5354330708661418,
          "duration": 0.04006792382812474
        },
        {
          "name": "A#3",
          "midi": 58,
          "time": 5.965812271484378,
          "velocity": 0.5354330708661418,
          "duration": 0.04006792382812474
        },
        {
          "name": "F4",
          "midi": 65,
          "time": 5.965812271484378,
          "velocity": 0.6141732283464567,
          "duration": 0.04006792382812474
        },
        {
          "name": "G3",
          "midi": 55,
          "time": 6.072660068359378,
          "velocity": 0.6220472440944882,
          "duration": 0.046099654296875237
        },
        {
          "name": "A#3",
          "midi": 58,
          "time": 6.072660068359378,
          "velocity": 0.6220472440944882,
          "duration": 0.05256222265624988
        },
        {
          "name": "F4",
          "midi": 65,
          "time": 6.072660068359378,
          "velocity": 0.5826771653543307,
          "duration": 0.046099654296875237
        },
        {
          "name": "G#3",
          "midi": 56,
          "time": 6.185539595703127,
          "velocity": 0.7401574803149606,
          "duration": 0.08702925390625005
        },
        {
          "name": "C4",
          "midi": 60,
          "time": 6.185539595703127,
          "velocity": 0.7401574803149606,
          "duration": 0.08702925390625005
        },
        {
          "name": "F4",
          "midi": 65,
          "time": 6.185539595703127,
          "velocity": 0.7007874015748031,
          "duration": 0.08702925390625005
        },
        {
          "name": "F2",
          "midi": 41,
          "time": 6.185539595703127,
          "velocity": 0.7165354330708661,
          "duration": 0.4368696210937495
        },
        {
          "name": "G#3",
          "midi": 56,
          "time": 6.4052669199218775,
          "velocity": 0.5354330708661418,
          "duration": 0.04006792382812474
        },
        {
          "name": "C4",
          "midi": 60,
          "time": 6.4052669199218775,
          "velocity": 0.5354330708661418,
          "duration": 0.04006792382812474
        },
        {
          "name": "F4",
          "midi": 65,
          "time": 6.4052669199218775,
          "velocity": 0.6141732283464567,
          "duration": 0.04006792382812474
        },
        {
          "name": "G#3",
          "midi": 56,
          "time": 6.512114716796877,
          "velocity": 0.6220472440944882,
          "duration": 0.04394546484375006
        },
        {
          "name": "C4",
          "midi": 60,
          "time": 6.512114716796877,
          "velocity": 0.6220472440944882,
          "duration": 0.0504080332031247
        },
        {
          "name": "F4",
          "midi": 65,
          "time": 6.512114716796877,
          "velocity": 0.5826771653543307,
          "duration": 0.04394546484375006
        },
        {
          "name": "A3",
          "midi": 57,
          "time": 6.622840054687502,
          "velocity": 0.7244094488188977,
          "duration": 0.08487506445312487
        },
        {
          "name": "C#4",
          "midi": 61,
          "time": 6.622840054687502,
          "velocity": 0.7244094488188977,
          "duration": 0.08487506445312487
        },
        {
          "name": "F4",
          "midi": 65,
          "time": 6.622840054687502,
          "velocity": 0.6850393700787402,
          "duration": 0.08487506445312487
        },
        {
          "name": "G#2",
          "midi": 44,
          "time": 6.622840054687502,
          "velocity": 0.7007874015748031,
          "duration": 0.2042171601562499
        },
        {
          "name": "A3",
          "midi": 57,
          "time": 6.840413189453127,
          "velocity": 0.6299212598425197,
          "duration": 0.08573674023437494
        },
        {
          "name": "C#4",
          "midi": 61,
          "time": 6.840413189453127,
          "velocity": 0.6299212598425197,
          "duration": 0.07281160351562477
        },
        {
          "name": "F4",
          "midi": 65,
          "time": 6.840413189453127,
          "velocity": 0.7086614173228346,
          "duration": 0.08573674023437494
        },
        {
          "name": "A2",
          "midi": 45,
          "time": 6.840413189453127,
          "velocity": 0.6929133858267716,
          "duration": 0.20507883593749998
        },
        {
          "name": "A#4",
          "midi": 70,
          "time": 7.060571351562502,
          "velocity": 0.7322834645669292,
          "duration": 0.22015816210937533
        },
        {
          "name": "D4",
          "midi": 62,
          "time": 7.060571351562502,
          "velocity": 0.7322834645669292,
          "duration": 0.22015816210937533
        },
        {
          "name": "A#2",
          "midi": 46,
          "time": 7.060571351562502,
          "velocity": 0.7322834645669292,
          "duration": 0.22015816210937533
        },
        {
          "name": "F4",
          "midi": 65,
          "time": 7.512951136718753,
          "velocity": 0.7007874015748031,
          "duration": 0.4368696210937495
        },
        {
          "name": "A#3",
          "midi": 58,
          "time": 7.512951136718753,
          "velocity": 0.7007874015748031,
          "duration": 0.4368696210937495
        },
        {
          "name": "A#2",
          "midi": 46,
          "time": 7.512951136718753,
          "velocity": 0.7007874015748031,
          "duration": 0.1464848828124996
        },
        {
          "name": "A#2",
          "midi": 46,
          "time": 7.659866857421878,
          "velocity": 0.6929133858267716,
          "duration": 0.13269807031250025
        },
        {
          "name": "G#2",
          "midi": 44,
          "time": 7.801612523437503,
          "velocity": 0.6929133858267716,
          "duration": 0.13959147656249993
        },
        {
          "name": "F3",
          "midi": 53,
          "time": 7.9502515957031274,
          "velocity": 0.7165354330708661,
          "duration": 0.8728775664062454
        },
        {
          "name": "A#2",
          "midi": 46,
          "time": 7.9502515957031274,
          "velocity": 0.7165354330708661,
          "duration": 0.2063713496093751
        },
        {
          "name": "D4",
          "midi": 62,
          "time": 8.276826716796878,
          "velocity": 0.6299212598425197,
          "duration": 0.11029450000000018
        },
        {
          "name": "A#4",
          "midi": 70,
          "time": 8.276826716796878,
          "velocity": 0.7086614173228346,
          "duration": 0.11029450000000018
        },
        {
          "name": "D4",
          "midi": 62,
          "time": 8.387552054687502,
          "velocity": 0.6377952755905512,
          "duration": 0.10383193164062554
        },
        {
          "name": "A#4",
          "midi": 70,
          "time": 8.387552054687502,
          "velocity": 0.7480314960629921,
          "duration": 0.11029450000000018
        },
        {
          "name": "A#2",
          "midi": 46,
          "time": 8.387552054687502,
          "velocity": 0.7007874015748031,
          "duration": 0.20421716015624902
        },
        {
          "name": "D#4",
          "midi": 63,
          "time": 8.498277392578126,
          "velocity": 0.6299212598425197,
          "duration": 0.09995439062499933
        },
        {
          "name": "C5",
          "midi": 72,
          "time": 8.498277392578126,
          "velocity": 0.7401574803149606,
          "duration": 0.10641695898437398
        },
        {
          "name": "F4",
          "midi": 65,
          "time": 8.605125189453124,
          "velocity": 0.6299212598425197,
          "duration": 0.09995439062499933
        },
        {
          "name": "D5",
          "midi": 74,
          "time": 8.605125189453124,
          "velocity": 0.7401574803149606,
          "duration": 0.10641695898437398
        },
        {
          "name": "F#4",
          "midi": 66,
          "time": 8.711972986328123,
          "velocity": 0.6299212598425197,
          "duration": 0.10469360742187561
        },
        {
          "name": "D#5",
          "midi": 75,
          "time": 8.711972986328123,
          "velocity": 0.7401574803149606,
          "duration": 0.11115617578125025
        },
        {
          "name": "G#4",
          "midi": 68,
          "time": 8.825283351562497,
          "velocity": 0.6692913385826772,
          "duration": 0.8892494062499967
        },
        {
          "name": "F5",
          "midi": 77,
          "time": 8.825283351562497,
          "velocity": 0.7795275590551181,
          "duration": 0.8892494062499967
        },
        {
          "name": "G#2",
          "midi": 44,
          "time": 8.825283351562497,
          "velocity": 0.7322834645669292,
          "duration": 0.22015816210937444
        },
        {
          "name": "A#3",
          "midi": 58,
          "time": 9.16607612304687,
          "velocity": 0.6929133858267716,
          "duration": 0.11115617578125025
        },
        {
          "name": "A#3",
          "midi": 58,
          "time": 9.277663136718745,
          "velocity": 0.7007874015748031,
          "duration": 0.10426276953124969
        },
        {
          "name": "G#2",
          "midi": 44,
          "time": 9.277663136718745,
          "velocity": 0.7007874015748031,
          "duration": 0.1464848828124996
        },
        {
          "name": "C4",
          "midi": 60,
          "time": 9.388819312499995,
          "velocity": 0.6929133858267716,
          "duration": 0.09952355273437341
        },
        {
          "name": "G#2",
          "midi": 44,
          "time": 9.424578857421869,
          "velocity": 0.6929133858267716,
          "duration": 0.13269807031250025
        },
        {
          "name": "D4",
          "midi": 62,
          "time": 9.49523627148437,
          "velocity": 0.6929133858267716,
          "duration": 0.09995439062499933
        },
        {
          "name": "F#2",
          "midi": 42,
          "time": 9.566324523437494,
          "velocity": 0.6929133858267716,
          "duration": 0.13959147656250082
        },
        {
          "name": "D#4",
          "midi": 63,
          "time": 9.60208406835937,
          "velocity": 0.6929133858267716,
          "duration": 0.10598612109374983
        },
        {
          "name": "F4",
          "midi": 65,
          "time": 9.714963595703118,
          "velocity": 0.7165354330708661,
          "duration": 0.8728775664062489
        },
        {
          "name": "G#2",
          "midi": 44,
          "time": 9.714963595703118,
          "velocity": 0.7165354330708661,
          "duration": 0.2063713496093751
        },
        {
          "name": "G#4",
          "midi": 68,
          "time": 9.934690919921868,
          "velocity": 0.6299212598425197,
          "duration": 0.21714229687500008
        },
        {
          "name": "F5",
          "midi": 77,
          "time": 9.934690919921868,
          "velocity": 0.7086614173228346,
          "duration": 0.21714229687500008
        },
        {
          "name": "G#4",
          "midi": 68,
          "time": 10.152264054687492,
          "velocity": 0.6377952755905512,
          "duration": 0.13743728710937475
        },
        {
          "name": "F5",
          "midi": 77,
          "time": 10.152264054687492,
          "velocity": 0.7480314960629921,
          "duration": 0.14605404492187546
        },
        {
          "name": "G#2",
          "midi": 44,
          "time": 10.152264054687492,
          "velocity": 0.7007874015748031,
          "duration": 0.20421716015624902
        },
        {
          "name": "A#4",
          "midi": 70,
          "time": 10.298748937499992,
          "velocity": 0.6299212598425197,
          "duration": 0.1331289082031244
        },
        {
          "name": "F#5",
          "midi": 78,
          "time": 10.298748937499992,
          "velocity": 0.7401574803149606,
          "duration": 0.1417456660156251
        },
        {
          "name": "C5",
          "midi": 72,
          "time": 10.440925441406241,
          "velocity": 0.6299212598425197,
          "duration": 0.13829896289062482
        },
        {
          "name": "G#5",
          "midi": 80,
          "time": 10.440925441406241,
          "velocity": 0.7401574803149606,
          "duration": 0.14691572070312553
        },
        {
          "name": "C#5",
          "midi": 73,
          "time": 10.589995351562491,
          "velocity": 0.6692913385826772,
          "duration": 0.8892494062499967
        },
        {
          "name": "A#5",
          "midi": 82,
          "time": 10.589995351562491,
          "velocity": 0.7795275590551181,
          "duration": 0.8892494062499967
        },
        {
          "name": "F#2",
          "midi": 42,
          "time": 10.589995351562491,
          "velocity": 0.7322834645669292,
          "duration": 0.22015816210937444
        },
        {
          "name": "F#3",
          "midi": 54,
          "time": 10.930788123046865,
          "velocity": 0.6929133858267716,
          "duration": 0.11115617578125025
        },
        {
          "name": "F#3",
          "midi": 54,
          "time": 11.04237513671874,
          "velocity": 0.7007874015748031,
          "duration": 0.10426276953124969
        },
        {
          "name": "F#2",
          "midi": 42,
          "time": 11.04237513671874,
          "velocity": 0.7007874015748031,
          "duration": 0.1464848828124996
        },
        {
          "name": "G#3",
          "midi": 56,
          "time": 11.15353131249999,
          "velocity": 0.6929133858267716,
          "duration": 0.09952355273437341
        },
        {
          "name": "F#2",
          "midi": 42,
          "time": 11.189290857421863,
          "velocity": 0.6929133858267716,
          "duration": 0.13269807031250025
        },
        {
          "name": "A#3",
          "midi": 58,
          "time": 11.259948271484364,
          "velocity": 0.6929133858267716,
          "duration": 0.09995439062499933
        },
        {
          "name": "E2",
          "midi": 40,
          "time": 11.331036523437488,
          "velocity": 0.6850393700787402,
          "duration": 0.13959147656250082
        },
        {
          "name": "C4",
          "midi": 60,
          "time": 11.366796068359363,
          "velocity": 0.6929133858267716,
          "duration": 0.10598612109374983
        },
        {
          "name": "C#4",
          "midi": 61,
          "time": 11.479675595703112,
          "velocity": 0.7165354330708661,
          "duration": 0.4368696210937504
        },
        {
          "name": "F#2",
          "midi": 42,
          "time": 11.479675595703112,
          "velocity": 0.6220472440944882,
          "duration": 0.23265246093749958
        },
        {
          "name": "C#5",
          "midi": 73,
          "time": 11.806250716796862,
          "velocity": 0.6299212598425197,
          "duration": 0.11029450000000018
        },
        {
          "name": "A#5",
          "midi": 82,
          "time": 11.806250716796862,
          "velocity": 0.7086614173228346,
          "duration": 0.11029450000000018
        },
        {
          "name": "C#5",
          "midi": 73,
          "time": 11.916976054687487,
          "velocity": 0.6377952755905512,
          "duration": 0.13743728710937475
        },
        {
          "name": "A#5",
          "midi": 82,
          "time": 11.916976054687487,
          "velocity": 0.7480314960629921,
          "duration": 0.14605404492187546
        },
        {
          "name": "F#2",
          "midi": 42,
          "time": 11.916976054687487,
          "velocity": 0.6062992125984252,
          "duration": 0.2304982714843753
        },
        {
          "name": "F#3",
          "midi": 54,
          "time": 11.916976054687487,
          "velocity": 0.7007874015748031,
          "duration": 0.43557710742187616
        },
        {
          "name": "C5",
          "midi": 72,
          "time": 12.063460937499986,
          "velocity": 0.6299212598425197,
          "duration": 0.13312890820312617
        },
        {
          "name": "G#5",
          "midi": 80,
          "time": 12.063460937499986,
          "velocity": 0.7401574803149606,
          "duration": 0.14174566601562688
        },
        {
          "name": "A#4",
          "midi": 70,
          "time": 12.205637441406237,
          "velocity": 0.6299212598425197,
          "duration": 0.13829896289062482
        },
        {
          "name": "F#5",
          "midi": 78,
          "time": 12.205637441406237,
          "velocity": 0.7401574803149606,
          "duration": 0.14691572070312553
        },
        {
          "name": "C5",
          "midi": 72,
          "time": 12.354707351562487,
          "velocity": 0.6692913385826772,
          "duration": 0.15294745117187425
        },
        {
          "name": "G#5",
          "midi": 80,
          "time": 12.354707351562487,
          "velocity": 0.7795275590551181,
          "duration": 0.16156420898437496
        },
        {
          "name": "F3",
          "midi": 53,
          "time": 12.354707351562487,
          "velocity": 0.7322834645669292,
          "duration": 0.5988646679687495
        },
        {
          "name": "C#3",
          "midi": 49,
          "time": 12.354707351562487,
          "velocity": 0.7322834645669292,
          "duration": 0.22015816210937444
        },
        {
          "name": "A#4",
          "midi": 70,
          "time": 12.659740578124987,
          "velocity": 0.6299212598425197,
          "duration": 0.13829896289062482
        },
        {
          "name": "F#5",
          "midi": 78,
          "time": 12.659740578124987,
          "velocity": 0.7401574803149606,
          "duration": 0.14691572070312553
        },
        {
          "name": "G#4",
          "midi": 68,
          "time": 12.807087136718737,
          "velocity": 0.6377952755905512,
          "duration": 0.8741700800781249
        },
        {
          "name": "F5",
          "midi": 77,
          "time": 12.807087136718737,
          "velocity": 0.7480314960629921,
          "duration": 0.8741700800781249
        },
        {
          "name": "C#3",
          "midi": 49,
          "time": 12.807087136718737,
          "velocity": 0.7007874015748031,
          "duration": 0.1464848828124996
        },
        {
          "name": "F3",
          "midi": 53,
          "time": 12.95400285742186,
          "velocity": 0.6929133858267716,
          "duration": 0.13269807031250025
        },
        {
          "name": "C#3",
          "midi": 49,
          "time": 12.95400285742186,
          "velocity": 0.6929133858267716,
          "duration": 0.13269807031250025
        },
        {
          "name": "D#3",
          "midi": 51,
          "time": 13.095748523437486,
          "velocity": 0.6929133858267716,
          "duration": 0.13959147656250082
        },
        {
          "name": "C3",
          "midi": 48,
          "time": 13.095748523437486,
          "velocity": 0.6929133858267716,
          "duration": 0.13959147656250082
        },
        {
          "name": "F3",
          "midi": 53,
          "time": 13.244387595703111,
          "velocity": 0.7165354330708661,
          "duration": 0.8728775664062507
        },
        {
          "name": "C#3",
          "midi": 49,
          "time": 13.244387595703111,
          "velocity": 0.7165354330708661,
          "duration": 0.2063713496093751
        },
        {
          "name": "G#4",
          "midi": 68,
          "time": 13.681688054687486,
          "velocity": 0.6377952755905512,
          "duration": 0.43557710742187616
        },
        {
          "name": "F5",
          "midi": 77,
          "time": 13.681688054687486,
          "velocity": 0.7480314960629921,
          "duration": 0.43557710742187616
        },
        {
          "name": "C#3",
          "midi": 49,
          "time": 13.681688054687486,
          "velocity": 0.7007874015748031,
          "duration": 0.2042171601562508
        },
        {
          "name": "F#4",
          "midi": 66,
          "time": 14.119419351562486,
          "velocity": 0.6692913385826772,
          "duration": 0.23308329882812373
        },
        {
          "name": "D#5",
          "midi": 75,
          "time": 14.119419351562486,
          "velocity": 0.7795275590551181,
          "duration": 0.23308329882812373
        },
        {
          "name": "F#3",
          "midi": 54,
          "time": 14.119419351562486,
          "velocity": 0.7322834645669292,
          "duration": 0.4519489472656222
        },
        {
          "name": "B2",
          "midi": 47,
          "time": 14.119419351562486,
          "velocity": 0.7322834645669292,
          "duration": 0.22015816210937444
        },
        {
          "name": "F#4",
          "midi": 66,
          "time": 14.352933488281234,
          "velocity": 0.6299212598425197,
          "duration": 0.10038522851562526
        },
        {
          "name": "D#5",
          "midi": 75,
          "time": 14.352933488281234,
          "velocity": 0.7401574803149606,
          "duration": 0.1068477968749999
        },
        {
          "name": "G#4",
          "midi": 68,
          "time": 14.460212123046858,
          "velocity": 0.6299212598425197,
          "duration": 0.10469360742187561
        },
        {
          "name": "F5",
          "midi": 77,
          "time": 14.460212123046858,
          "velocity": 0.7401574803149606,
          "duration": 0.11115617578125025
        },
        {
          "name": "A#4",
          "midi": 70,
          "time": 14.571799136718733,
          "velocity": 0.6377952755905512,
          "duration": 0.8741700800781231
        },
        {
          "name": "F#5",
          "midi": 78,
          "time": 14.571799136718733,
          "velocity": 0.7480314960629921,
          "duration": 0.8741700800781231
        },
        {
          "name": "F#3",
          "midi": 54,
          "time": 14.571799136718733,
          "velocity": 0.7007874015748031,
          "duration": 0.2171422968749983
        },
        {
          "name": "B2",
          "midi": 47,
          "time": 14.571799136718733,
          "velocity": 0.7007874015748031,
          "duration": 0.1464848828124996
        },
        {
          "name": "B2",
          "midi": 47,
          "time": 14.718714857421856,
          "velocity": 0.6929133858267716,
          "duration": 0.13269807031249847
        },
        {
          "name": "F#3",
          "midi": 54,
          "time": 14.789372271484355,
          "velocity": 0.6929133858267716,
          "duration": 0.09995439062499933
        },
        {
          "name": "A#2",
          "midi": 46,
          "time": 14.86046052343748,
          "velocity": 0.6929133858267716,
          "duration": 0.13959147656250082
        },
        {
          "name": "G#3",
          "midi": 56,
          "time": 14.896220068359355,
          "velocity": 0.6929133858267716,
          "duration": 0.10598612109374983
        },
        {
          "name": "A#3",
          "midi": 58,
          "time": 15.009099595703105,
          "velocity": 0.7165354330708661,
          "duration": 0.8728775664062454
        },
        {
          "name": "B2",
          "midi": 47,
          "time": 15.009099595703105,
          "velocity": 0.7165354330708661,
          "duration": 0.2063713496093751
        },
        {
          "name": "G#4",
          "midi": 68,
          "time": 15.44640005468748,
          "velocity": 0.6377952755905512,
          "duration": 0.20421716015624902
        },
        {
          "name": "F5",
          "midi": 77,
          "time": 15.44640005468748,
          "velocity": 0.7480314960629921,
          "duration": 0.2171422968749983
        },
        {
          "name": "B2",
          "midi": 47,
          "time": 15.44640005468748,
          "velocity": 0.6062992125984252,
          "duration": 0.14605404492187546
        },
        {
          "name": "B2",
          "midi": 47,
          "time": 15.59288493749998,
          "velocity": 0.5984251968503937,
          "duration": 0.14174566601562333
        },
        {
          "name": "F#4",
          "midi": 66,
          "time": 15.663973189453102,
          "velocity": 0.6299212598425197,
          "duration": 0.2050788359374991
        },
        {
          "name": "D#5",
          "midi": 75,
          "time": 15.663973189453102,
          "velocity": 0.7401574803149606,
          "duration": 0.21800397265624838
        },
        {
          "name": "B2",
          "midi": 47,
          "time": 15.735061441406227,
          "velocity": 0.5984251968503937,
          "duration": 0.15553247851562269
        },
        {
          "name": "F4",
          "midi": 65,
          "time": 15.884131351562475,
          "velocity": 0.6692913385826772,
          "duration": 0.2330832988281255
        },
        {
          "name": "C#5",
          "midi": 73,
          "time": 15.884131351562475,
          "velocity": 0.7795275590551181,
          "duration": 0.2330832988281255
        },
        {
          "name": "F3",
          "midi": 53,
          "time": 15.884131351562475,
          "velocity": 0.7322834645669292,
          "duration": 0.45194894726562573
        },
        {
          "name": "A#2",
          "midi": 46,
          "time": 15.884131351562475,
          "velocity": 0.7322834645669292,
          "duration": 0.22015816210937622
        },
        {
          "name": "F4",
          "midi": 65,
          "time": 16.117645488281227,
          "velocity": 0.6299212598425197,
          "duration": 0.10038522851562348
        },
        {
          "name": "C#5",
          "midi": 73,
          "time": 16.117645488281227,
          "velocity": 0.7401574803149606,
          "duration": 0.10684779687499812
        },
        {
          "name": "F#4",
          "midi": 66,
          "time": 16.22492412304685,
          "velocity": 0.6299212598425197,
          "duration": 0.10469360742187561
        },
        {
          "name": "D#5",
          "midi": 75,
          "time": 16.22492412304685,
          "velocity": 0.7401574803149606,
          "duration": 0.11115617578125025
        },
        {
          "name": "G#4",
          "midi": 68,
          "time": 16.336511136718727,
          "velocity": 0.6377952755905512,
          "duration": 0.8741700800781338
        },
        {
          "name": "F5",
          "midi": 77,
          "time": 16.336511136718727,
          "velocity": 0.7480314960629921,
          "duration": 0.8741700800781338
        },
        {
          "name": "F3",
          "midi": 53,
          "time": 16.336511136718727,
          "velocity": 0.7007874015748031,
          "duration": 0.21714229687500364
        },
        {
          "name": "A#2",
          "midi": 46,
          "time": 16.336511136718727,
          "velocity": 0.7007874015748031,
          "duration": 0.14648488281250138
        },
        {
          "name": "A#2",
          "midi": 46,
          "time": 16.483426857421854,
          "velocity": 0.6929133858267716,
          "duration": 0.1326980703125038
        },
        {
          "name": "F3",
          "midi": 53,
          "time": 16.554084271484356,
          "velocity": 0.6929133858267716,
          "duration": 0.09995439062500466
        },
        {
          "name": "G#2",
          "midi": 44,
          "time": 16.625172523437485,
          "velocity": 0.6929133858267716,
          "duration": 0.13959147656250082
        },
        {
          "name": "F#3",
          "midi": 54,
          "time": 16.66093206835936,
          "velocity": 0.6929133858267716,
          "duration": 0.10598612109374983
        },
        {
          "name": "G#3",
          "midi": 56,
          "time": 16.773811595703112,
          "velocity": 0.7165354330708661,
          "duration": 0.8728775664062489
        },
        {
          "name": "A#2",
          "midi": 46,
          "time": 16.773811595703112,
          "velocity": 0.7165354330708661,
          "duration": 0.2063713496093733
        },
        {
          "name": "F#4",
          "midi": 66,
          "time": 17.211112054687487,
          "velocity": 0.6377952755905512,
          "duration": 0.2042171601562508
        },
        {
          "name": "D#5",
          "midi": 75,
          "time": 17.211112054687487,
          "velocity": 0.7480314960629921,
          "duration": 0.21714229687500008
        },
        {
          "name": "A#2",
          "midi": 46,
          "time": 17.211112054687487,
          "velocity": 0.6062992125984252,
          "duration": 0.14605404492187546
        },
        {
          "name": "A#2",
          "midi": 46,
          "time": 17.357596937499988,
          "velocity": 0.5984251968503937,
          "duration": 0.14174566601562333
        },
        {
          "name": "F4",
          "midi": 65,
          "time": 17.428685189453113,
          "velocity": 0.6299212598425197,
          "duration": 0.2050788359374991
        },
        {
          "name": "C#5",
          "midi": 73,
          "time": 17.428685189453113,
          "velocity": 0.7401574803149606,
          "duration": 0.21800397265624838
        },
        {
          "name": "A#2",
          "midi": 46,
          "time": 17.499773441406237,
          "velocity": 0.5984251968503937,
          "duration": 0.15553247851562446
        },
        {
          "name": "E4",
          "midi": 64,
          "time": 17.648843351562487,
          "velocity": 0.6692913385826772,
          "duration": 0.23308329882812373
        },
        {
          "name": "C5",
          "midi": 72,
          "time": 17.648843351562487,
          "velocity": 0.7795275590551181,
          "duration": 0.23308329882812373
        },
        {
          "name": "E3",
          "midi": 52,
          "time": 17.648843351562487,
          "velocity": 0.7322834645669292,
          "duration": 0.45194894726562396
        },
        {
          "name": "C3",
          "midi": 48,
          "time": 17.648843351562487,
          "velocity": 0.7322834645669292,
          "duration": 0.22015816210937444
        },
        {
          "name": "E4",
          "midi": 64,
          "time": 17.882357488281237,
          "velocity": 0.6299212598425197,
          "duration": 0.10038522851562348
        },
        {
          "name": "C5",
          "midi": 72,
          "time": 17.882357488281237,
          "velocity": 0.7401574803149606,
          "duration": 0.10684779687499812
        },
        {
          "name": "F4",
          "midi": 65,
          "time": 17.98963612304686,
          "velocity": 0.6299212598425197,
          "duration": 0.10469360742187561
        },
        {
          "name": "D5",
          "midi": 74,
          "time": 17.98963612304686,
          "velocity": 0.7401574803149606,
          "duration": 0.11115617578125025
        },
        {
          "name": "G4",
          "midi": 67,
          "time": 18.101223136718737,
          "velocity": 0.6377952755905512,
          "duration": 0.8741700800781338
        },
        {
          "name": "E5",
          "midi": 76,
          "time": 18.101223136718737,
          "velocity": 0.7480314960629921,
          "duration": 0.8741700800781338
        },
        {
          "name": "E3",
          "midi": 52,
          "time": 18.101223136718737,
          "velocity": 0.7007874015748031,
          "duration": 0.21714229687500364
        },
        {
          "name": "C3",
          "midi": 48,
          "time": 18.101223136718737,
          "velocity": 0.7007874015748031,
          "duration": 0.14648488281250138
        },
        {
          "name": "C3",
          "midi": 48,
          "time": 18.248138857421864,
          "velocity": 0.6929133858267716,
          "duration": 0.1326980703125038
        },
        {
          "name": "E3",
          "midi": 52,
          "time": 18.318796271484366,
          "velocity": 0.6929133858267716,
          "duration": 0.09995439062500466
        },
        {
          "name": "B2",
          "midi": 47,
          "time": 18.389884523437495,
          "velocity": 0.6929133858267716,
          "duration": 0.13959147656250082
        },
        {
          "name": "F3",
          "midi": 53,
          "time": 18.42564406835937,
          "velocity": 0.6929133858267716,
          "duration": 0.10598612109374983
        },
        {
          "name": "G3",
          "midi": 55,
          "time": 18.538523595703122,
          "velocity": 0.7165354330708661,
          "duration": 0.2192964863281226
        },
        {
          "name": "C3",
          "midi": 48,
          "time": 18.538523595703122,
          "velocity": 0.7165354330708661,
          "duration": 0.2063713496093733
        },
        {
          "name": "G3",
          "midi": 55,
          "time": 18.75825091992187,
          "velocity": 0.6929133858267716,
          "duration": 0.09995439062500111
        },
        {
          "name": "A3",
          "midi": 57,
          "time": 18.865098716796872,
          "velocity": 0.6929133858267716,
          "duration": 0.10383193164062376
        },
        {
          "name": "A#4",
          "midi": 70,
          "time": 18.975824054687497,
          "velocity": 0.6377952755905512,
          "duration": 0.4355771074218744
        },
        {
          "name": "G5",
          "midi": 79,
          "time": 18.975824054687497,
          "velocity": 0.7480314960629921,
          "duration": 0.4355771074218744
        },
        {
          "name": "A#3",
          "midi": 58,
          "time": 18.975824054687497,
          "velocity": 0.7007874015748031,
          "duration": 0.2042171601562508
        },
        {
          "name": "C3",
          "midi": 48,
          "time": 18.975824054687497,
          "velocity": 0.6062992125984252,
          "duration": 0.14605404492187546
        },
        {
          "name": "C3",
          "midi": 48,
          "time": 19.122308937499998,
          "velocity": 0.5984251968503937,
          "duration": 0.14174566601562333
        },
        {
          "name": "C4",
          "midi": 60,
          "time": 19.193397189453123,
          "velocity": 0.6929133858267716,
          "duration": 0.2050788359374991
        },
        {
          "name": "C3",
          "midi": 48,
          "time": 19.264485441406247,
          "velocity": 0.5984251968503937,
          "duration": 0.15553247851562446
        },
        {
          "name": "A4",
          "midi": 69,
          "time": 19.413555351562497,
          "velocity": 0.6692913385826772,
          "duration": 0.22015816210937444
        },
        {
          "name": "F5",
          "midi": 77,
          "time": 19.413555351562497,
          "velocity": 0.7795275590551181,
          "duration": 0.23308329882812373
        },
        {
          "name": "F2",
          "midi": 41,
          "time": 19.413555351562497,
          "velocity": 0.7322834645669292,
          "duration": 0.22015816210937444
        },
        {
          "name": "A3",
          "midi": 57,
          "time": 19.647069488281247,
          "velocity": 0.5354330708661418,
          "duration": 0.10684779687500168
        },
        {
          "name": "F4",
          "midi": 65,
          "time": 19.647069488281247,
          "velocity": 0.6456692913385826,
          "duration": 0.10684779687500168
        },
        {
          "name": "A3",
          "midi": 57,
          "time": 19.754348123046874,
          "velocity": 0.5354330708661418,
          "duration": 0.11115617578125025
        },
        {
          "name": "F4",
          "midi": 65,
          "time": 19.754348123046874,
          "velocity": 0.6141732283464567,
          "duration": 0.11115617578125025
        },
        {
          "name": "A3",
          "midi": 57,
          "time": 19.86593513671875,
          "velocity": 0.6377952755905512,
          "duration": 0.21714229687500008
        },
        {
          "name": "F4",
          "midi": 65,
          "time": 19.86593513671875,
          "velocity": 0.7165354330708661,
          "duration": 0.21714229687500008
        },
        {
          "name": "F2",
          "midi": 41,
          "time": 19.86593513671875,
          "velocity": 0.7007874015748031,
          "duration": 0.2042171601562508
        },
        {
          "name": "A3",
          "midi": 57,
          "time": 20.083508271484376,
          "velocity": 0.5354330708661418,
          "duration": 0.10641695898437575
        },
        {
          "name": "F4",
          "midi": 65,
          "time": 20.083508271484376,
          "velocity": 0.6141732283464567,
          "duration": 0.10641695898437575
        },
        {
          "name": "A3",
          "midi": 57,
          "time": 20.190356068359378,
          "velocity": 0.5354330708661418,
          "duration": 0.11244868945312447
        },
        {
          "name": "F4",
          "midi": 65,
          "time": 20.190356068359378,
          "velocity": 0.6141732283464567,
          "duration": 0.11244868945312447
        },
        {
          "name": "A3",
          "midi": 57,
          "time": 20.30323559570313,
          "velocity": 0.6535433070866141,
          "duration": 0.2192964863281226
        },
        {
          "name": "F4",
          "midi": 65,
          "time": 20.30323559570313,
          "velocity": 0.7322834645669292,
          "duration": 0.2192964863281226
        },
        {
          "name": "F2",
          "midi": 41,
          "time": 20.30323559570313,
          "velocity": 0.7165354330708661,
          "duration": 0.2063713496093733
        },
        {
          "name": "A3",
          "midi": 57,
          "time": 20.522962919921877,
          "velocity": 0.5354330708661418,
          "duration": 0.10641695898437575
        },
        {
          "name": "F4",
          "midi": 65,
          "time": 20.522962919921877,
          "velocity": 0.6141732283464567,
          "duration": 0.10641695898437575
        },
        {
          "name": "A3",
          "midi": 57,
          "time": 20.62981071679688,
          "velocity": 0.5354330708661418,
          "duration": 0.11029449999999841
        },
        {
          "name": "F4",
          "midi": 65,
          "time": 20.62981071679688,
          "velocity": 0.6141732283464567,
          "duration": 0.11029449999999841
        },
        {
          "name": "A3",
          "midi": 57,
          "time": 20.740536054687503,
          "velocity": 0.6377952755905512,
          "duration": 0.21714229687500008
        },
        {
          "name": "F4",
          "midi": 65,
          "time": 20.740536054687503,
          "velocity": 0.7165354330708661,
          "duration": 0.21714229687500008
        },
        {
          "name": "G2",
          "midi": 43,
          "time": 20.740536054687503,
          "velocity": 0.7007874015748031,
          "duration": 0.2042171601562508
        },
        {
          "name": "A3",
          "midi": 57,
          "time": 20.95810918945313,
          "velocity": 0.6299212598425197,
          "duration": 0.2050788359374991
        },
        {
          "name": "F4",
          "midi": 65,
          "time": 20.95810918945313,
          "velocity": 0.7086614173228346,
          "duration": 0.21800397265624838
        },
        {
          "name": "A2",
          "midi": 45,
          "time": 20.95810918945313,
          "velocity": 0.6929133858267716,
          "duration": 0.2050788359374991
        },
        {
          "name": "A#4",
          "midi": 70,
          "time": 21.178267351562504,
          "velocity": 0.7322834645669292,
          "duration": 0.22015816210937444
        },
        {
          "name": "D4",
          "midi": 62,
          "time": 21.178267351562504,
          "velocity": 0.7322834645669292,
          "duration": 0.22015816210937444
        },
        {
          "name": "A#2",
          "midi": 46,
          "time": 21.178267351562504,
          "velocity": 0.7322834645669292,
          "duration": 0.22015816210937444
        },
        {
          "name": "F4",
          "midi": 65,
          "time": 21.630647136718753,
          "velocity": 0.7007874015748031,
          "duration": 0.4368696210937557
        },
        {
          "name": "A#3",
          "midi": 58,
          "time": 21.630647136718753,
          "velocity": 0.7007874015748031,
          "duration": 0.4368696210937557
        },
        {
          "name": "A#2",
          "midi": 46,
          "time": 21.630647136718753,
          "velocity": 0.7007874015748031,
          "duration": 0.14648488281250138
        },
        {
          "name": "A#2",
          "midi": 46,
          "time": 21.77756285742188,
          "velocity": 0.6929133858267716,
          "duration": 0.13269807031250025
        },
        {
          "name": "G#2",
          "midi": 44,
          "time": 21.919308523437508,
          "velocity": 0.6929133858267716,
          "duration": 0.13959147656250082
        },
        {
          "name": "F3",
          "midi": 53,
          "time": 22.067947595703135,
          "velocity": 0.7165354330708661,
          "duration": 0.8728775664062489
        },
        {
          "name": "A#2",
          "midi": 46,
          "time": 22.067947595703135,
          "velocity": 0.7165354330708661,
          "duration": 0.2063713496093733
        },
        {
          "name": "D4",
          "midi": 62,
          "time": 22.39452271679688,
          "velocity": 0.6299212598425197,
          "duration": 0.11029449999999841
        },
        {
          "name": "A#4",
          "midi": 70,
          "time": 22.39452271679688,
          "velocity": 0.7086614173228346,
          "duration": 0.11029449999999841
        },
        {
          "name": "D4",
          "midi": 62,
          "time": 22.505248054687506,
          "velocity": 0.6377952755905512,
          "duration": 0.10383193164062376
        },
        {
          "name": "A#4",
          "midi": 70,
          "time": 22.505248054687506,
          "velocity": 0.7480314960629921,
          "duration": 0.11029449999999841
        },
        {
          "name": "A#2",
          "midi": 46,
          "time": 22.505248054687506,
          "velocity": 0.7007874015748031,
          "duration": 0.2042171601562508
        },
        {
          "name": "D#4",
          "midi": 63,
          "time": 22.61597339257813,
          "velocity": 0.6299212598425197,
          "duration": 0.09995439062500111
        },
        {
          "name": "C5",
          "midi": 72,
          "time": 22.61597339257813,
          "velocity": 0.7401574803149606,
          "duration": 0.10641695898437575
        },
        {
          "name": "F4",
          "midi": 65,
          "time": 22.722821189453132,
          "velocity": 0.6299212598425197,
          "duration": 0.09995439062500111
        },
        {
          "name": "D5",
          "midi": 74,
          "time": 22.722821189453132,
          "velocity": 0.7401574803149606,
          "duration": 0.10641695898437575
        },
        {
          "name": "F#4",
          "midi": 66,
          "time": 22.829668986328134,
          "velocity": 0.6299212598425197,
          "duration": 0.10469360742187561
        },
        {
          "name": "D#5",
          "midi": 75,
          "time": 22.829668986328134,
          "velocity": 0.7401574803149606,
          "duration": 0.11115617578125025
        },
        {
          "name": "G#4",
          "midi": 68,
          "time": 22.94297935156251,
          "velocity": 0.6692913385826772,
          "duration": 0.8892494062500091
        },
        {
          "name": "F5",
          "midi": 77,
          "time": 22.94297935156251,
          "velocity": 0.7795275590551181,
          "duration": 0.8892494062500091
        },
        {
          "name": "G#2",
          "midi": 44,
          "time": 22.94297935156251,
          "velocity": 0.7322834645669292,
          "duration": 0.22015816210937444
        },
        {
          "name": "A#3",
          "midi": 58,
          "time": 23.283772123046884,
          "velocity": 0.6929133858267716,
          "duration": 0.11115617578125025
        },
        {
          "name": "A#3",
          "midi": 58,
          "time": 23.39535913671876,
          "velocity": 0.7007874015748031,
          "duration": 0.10426276953124969
        },
        {
          "name": "G#2",
          "midi": 44,
          "time": 23.39535913671876,
          "velocity": 0.7007874015748031,
          "duration": 0.14648488281250138
        },
        {
          "name": "C4",
          "midi": 60,
          "time": 23.50651531250001,
          "velocity": 0.6929133858267716,
          "duration": 0.09952355273437874
        },
        {
          "name": "G#2",
          "midi": 44,
          "time": 23.542274857421887,
          "velocity": 0.6929133858267716,
          "duration": 0.1326980703125038
        },
        {
          "name": "D4",
          "midi": 62,
          "time": 23.61293227148439,
          "velocity": 0.6929133858267716,
          "duration": 0.09995439062500466
        },
        {
          "name": "F#2",
          "midi": 42,
          "time": 23.684020523437518,
          "velocity": 0.6929133858267716,
          "duration": 0.13959147656250082
        },
        {
          "name": "D#4",
          "midi": 63,
          "time": 23.719780068359395,
          "velocity": 0.6929133858267716,
          "duration": 0.10598612109374983
        },
        {
          "name": "F4",
          "midi": 65,
          "time": 23.832659595703145,
          "velocity": 0.7165354330708661,
          "duration": 0.872877566406256
        },
        {
          "name": "G#2",
          "midi": 44,
          "time": 23.832659595703145,
          "velocity": 0.7165354330708661,
          "duration": 0.2063713496093733
        },
        {
          "name": "G#4",
          "midi": 68,
          "time": 24.052386919921894,
          "velocity": 0.6299212598425197,
          "duration": 0.21714229687500008
        },
        {
          "name": "F5",
          "midi": 77,
          "time": 24.052386919921894,
          "velocity": 0.7086614173228346,
          "duration": 0.21714229687500008
        },
        {
          "name": "G#4",
          "midi": 68,
          "time": 24.26996005468752,
          "velocity": 0.6377952755905512,
          "duration": 0.13743728710937475
        },
        {
          "name": "F5",
          "midi": 77,
          "time": 24.26996005468752,
          "velocity": 0.7480314960629921,
          "duration": 0.14605404492187546
        },
        {
          "name": "G#2",
          "midi": 44,
          "time": 24.26996005468752,
          "velocity": 0.7007874015748031,
          "duration": 0.2042171601562508
        },
        {
          "name": "A#4",
          "midi": 70,
          "time": 24.41644493750002,
          "velocity": 0.6299212598425197,
          "duration": 0.13312890820312617
        },
        {
          "name": "F#5",
          "midi": 78,
          "time": 24.41644493750002,
          "velocity": 0.7401574803149606,
          "duration": 0.14174566601562688
        },
        {
          "name": "C5",
          "midi": 72,
          "time": 24.558621441406274,
          "velocity": 0.6299212598425197,
          "duration": 0.1382989628906266
        },
        {
          "name": "G#5",
          "midi": 80,
          "time": 24.558621441406274,
          "velocity": 0.7401574803149606,
          "duration": 0.1469157207031273
        },
        {
          "name": "C#5",
          "midi": 73,
          "time": 24.707691351562527,
          "velocity": 0.6299212598425197,
          "duration": 1.3265498652343872
        },
        {
          "name": "A#5",
          "midi": 82,
          "time": 24.707691351562527,
          "velocity": 0.7401574803149606,
          "duration": 1.3265498652343872
        },
        {
          "name": "F#2",
          "midi": 42,
          "time": 24.707691351562527,
          "velocity": 0.7322834645669292,
          "duration": 0.22015816210937444
        },
        {
          "name": "F#3",
          "midi": 54,
          "time": 25.0484841230469,
          "velocity": 0.6929133858267716,
          "duration": 0.11115617578125025
        },
        {
          "name": "F#3",
          "midi": 54,
          "time": 25.160071136718777,
          "velocity": 0.7007874015748031,
          "duration": 0.10426276953124969
        },
        {
          "name": "F#2",
          "midi": 42,
          "time": 25.160071136718777,
          "velocity": 0.7007874015748031,
          "duration": 0.14648488281250138
        },
        {
          "name": "G#3",
          "midi": 56,
          "time": 25.271227312500027,
          "velocity": 0.6929133858267716,
          "duration": 0.09952355273437874
        },
        {
          "name": "F#2",
          "midi": 42,
          "time": 25.306986857421904,
          "velocity": 0.6929133858267716,
          "duration": 0.1326980703125038
        },
        {
          "name": "A#3",
          "midi": 58,
          "time": 25.377644271484407,
          "velocity": 0.6929133858267716,
          "duration": 0.09995439062500466
        },
        {
          "name": "E2",
          "midi": 40,
          "time": 25.448732523437535,
          "velocity": 0.6850393700787402,
          "duration": 0.13959147656250082
        },
        {
          "name": "C4",
          "midi": 60,
          "time": 25.484492068359412,
          "velocity": 0.6929133858267716,
          "duration": 0.10598612109374983
        },
        {
          "name": "C#4",
          "midi": 61,
          "time": 25.597371595703162,
          "velocity": 0.7165354330708661,
          "duration": 0.43686962109375216
        },
        {
          "name": "F#2",
          "midi": 42,
          "time": 25.597371595703162,
          "velocity": 0.6220472440944882,
          "duration": 0.23265246093750136
        },
        {
          "name": "F5",
          "midi": 77,
          "time": 26.03467205468754,
          "velocity": 0.6377952755905512,
          "duration": 0.4355771074218744
        },
        {
          "name": "C#6",
          "midi": 85,
          "time": 26.03467205468754,
          "velocity": 0.7480314960629921,
          "duration": 0.4355771074218744
        },
        {
          "name": "F#2",
          "midi": 42,
          "time": 26.03467205468754,
          "velocity": 0.6062992125984252,
          "duration": 0.2304982714843753
        },
        {
          "name": "F#3",
          "midi": 54,
          "time": 26.03467205468754,
          "velocity": 0.7007874015748031,
          "duration": 0.4355771074218744
        },
        {
          "name": "E5",
          "midi": 76,
          "time": 26.47240335156254,
          "velocity": 0.6692913385826772,
          "duration": 0.1874144824218753
        },
        {
          "name": "C6",
          "midi": 84,
          "time": 26.47240335156254,
          "velocity": 0.7795275590551181,
          "duration": 0.1874144824218753
        },
        {
          "name": "F3",
          "midi": 53,
          "time": 26.47240335156254,
          "velocity": 0.7322834645669292,
          "duration": 0.8892494062500056
        },
        {
          "name": "F2",
          "midi": 41,
          "time": 26.47240335156254,
          "velocity": 0.7322834645669292,
          "duration": 0.22015816210937444
        },
        {
          "name": "C5",
          "midi": 72,
          "time": 26.92478313671879,
          "velocity": 0.6377952755905512,
          "duration": 0.8741700800781338
        },
        {
          "name": "A5",
          "midi": 81,
          "time": 26.92478313671879,
          "velocity": 0.7480314960629921,
          "duration": 0.8741700800781338
        },
        {
          "name": "F2",
          "midi": 41,
          "time": 26.92478313671879,
          "velocity": 0.7007874015748031,
          "duration": 0.14648488281250138
        },
        {
          "name": "F2",
          "midi": 41,
          "time": 27.071698857421918,
          "velocity": 0.6929133858267716,
          "duration": 0.13269807031250025
        },
        {
          "name": "D#2",
          "midi": 39,
          "time": 27.213444523437545,
          "velocity": 0.6850393700787402,
          "duration": 0.13959147656250082
        },
        {
          "name": "A3",
          "midi": 57,
          "time": 27.362083595703172,
          "velocity": 0.7165354330708661,
          "duration": 0.8728775664062525
        },
        {
          "name": "F2",
          "midi": 41,
          "time": 27.362083595703172,
          "velocity": 0.6220472440944882,
          "duration": 0.23265246093750136
        },
        {
          "name": "A4",
          "midi": 69,
          "time": 27.79938405468755,
          "velocity": 0.6377952755905512,
          "duration": 0.4355771074218744
        },
        {
          "name": "F5",
          "midi": 77,
          "time": 27.79938405468755,
          "velocity": 0.7480314960629921,
          "duration": 0.4355771074218744
        },
        {
          "name": "F2",
          "midi": 41,
          "time": 27.79938405468755,
          "velocity": 0.6062992125984252,
          "duration": 0.2304982714843753
        },
        {
          "name": "A#4",
          "midi": 70,
          "time": 28.23711535156255,
          "velocity": 0.6299212598425197,
          "duration": 1.3265498652343872
        },
        {
          "name": "F#5",
          "midi": 78,
          "time": 28.23711535156255,
          "velocity": 0.7401574803149606,
          "duration": 1.3265498652343872
        },
        {
          "name": "E2",
          "midi": 40,
          "time": 28.23711535156255,
          "velocity": 0.7244094488188977,
          "duration": 0.15294745117187603
        },
        {
          "name": "A#2",
          "midi": 46,
          "time": 28.399110398437553,
          "velocity": 0.6929133858267716,
          "duration": 0.13399058398437447
        },
        {
          "name": "C#3",
          "midi": 49,
          "time": 28.542148578125055,
          "velocity": 0.6929133858267716,
          "duration": 0.1382989628906266
        },
        {
          "name": "E3",
          "midi": 52,
          "time": 28.689495136718808,
          "velocity": 0.7007874015748031,
          "duration": 0.13786812500000067
        },
        {
          "name": "A#3",
          "midi": 58,
          "time": 28.836410857421935,
          "velocity": 0.6929133858267716,
          "duration": 0.13269807031250025
        },
        {
          "name": "C#4",
          "midi": 61,
          "time": 28.978156523437562,
          "velocity": 0.6929133858267716,
          "duration": 0.13959147656250082
        },
        {
          "name": "E4",
          "midi": 64,
          "time": 29.12679559570319,
          "velocity": 0.7165354330708661,
          "duration": 0.2063713496093733
        },
        {
          "name": "C#5",
          "midi": 73,
          "time": 29.564096054687564,
          "velocity": 0.6377952755905512,
          "duration": 0.4355771074218744
        },
        {
          "name": "A#5",
          "midi": 82,
          "time": 29.564096054687564,
          "velocity": 0.7480314960629921,
          "duration": 0.4355771074218744
        },
        {
          "name": "C#4",
          "midi": 61,
          "time": 29.564096054687564,
          "velocity": 0.7007874015748031,
          "duration": 0.2042171601562508
        },
        {
          "name": "C5",
          "midi": 72,
          "time": 30.001827351562564,
          "velocity": 0.6692913385826772,
          "duration": 0.1874144824218753
        },
        {
          "name": "A5",
          "midi": 81,
          "time": 30.001827351562564,
          "velocity": 0.7795275590551181,
          "duration": 0.1874144824218753
        },
        {
          "name": "F4",
          "midi": 65,
          "time": 30.001827351562564,
          "velocity": 0.7322834645669292,
          "duration": 0.22015816210937444
        },
        {
          "name": "A4",
          "midi": 69,
          "time": 30.454207136718814,
          "velocity": 0.6377952755905512,
          "duration": 0.4368696210937557
        },
        {
          "name": "F5",
          "midi": 77,
          "time": 30.454207136718814,
          "velocity": 0.7480314960629921,
          "duration": 0.4368696210937557
        },
        {
          "name": "F2",
          "midi": 41,
          "time": 30.454207136718814,
          "velocity": 0.6062992125984252,
          "duration": 0.14648488281250138
        },
        {
          "name": "F2",
          "midi": 41,
          "time": 30.60112285742194,
          "velocity": 0.5984251968503937,
          "duration": 0.14131482812500096
        },
        {
          "name": "F2",
          "midi": 41,
          "time": 30.74286852343757,
          "velocity": 0.5984251968503937,
          "duration": 0.14820823437500152
        },
        {
          "name": "F3",
          "midi": 53,
          "time": 30.891507595703196,
          "velocity": 0.6535433070866141,
          "duration": 0.4368696210937486
        },
        {
          "name": "A3",
          "midi": 57,
          "time": 30.891507595703196,
          "velocity": 0.7637795275590551,
          "duration": 0.4368696210937486
        },
        {
          "name": "F2",
          "midi": 41,
          "time": 30.891507595703196,
          "velocity": 0.7165354330708661,
          "duration": 0.2063713496093733
        },
        {
          "name": "A4",
          "midi": 69,
          "time": 31.32880805468757,
          "velocity": 0.6377952755905512,
          "duration": 0.4355771074218744
        },
        {
          "name": "F5",
          "midi": 77,
          "time": 31.32880805468757,
          "velocity": 0.7480314960629921,
          "duration": 0.4355771074218744
        },
        {
          "name": "A#4",
          "midi": 70,
          "time": 31.76653935156257,
          "velocity": 0.6299212598425197,
          "duration": 1.3265498652343624
        },
        {
          "name": "F#5",
          "midi": 78,
          "time": 31.76653935156257,
          "velocity": 0.7401574803149606,
          "duration": 1.3265498652343624
        },
        {
          "name": "E2",
          "midi": 40,
          "time": 31.76653935156257,
          "velocity": 0.7244094488188977,
          "duration": 0.15294745117187603
        },
        {
          "name": "A#2",
          "midi": 46,
          "time": 31.928534398437574,
          "velocity": 0.6929133858267716,
          "duration": 0.13399058398437447
        },
        {
          "name": "C#3",
          "midi": 49,
          "time": 32.07157257812507,
          "velocity": 0.6929133858267716,
          "duration": 0.13829896289062305
        },
        {
          "name": "E3",
          "midi": 52,
          "time": 32.21891913671882,
          "velocity": 0.7007874015748031,
          "duration": 0.13786812499999712
        },
        {
          "name": "A#3",
          "midi": 58,
          "time": 32.36583485742194,
          "velocity": 0.6929133858267716,
          "duration": 0.13269807031250025
        },
        {
          "name": "C#4",
          "midi": 61,
          "time": 32.50758052343756,
          "velocity": 0.6929133858267716,
          "duration": 0.13959147656250082
        },
        {
          "name": "E4",
          "midi": 64,
          "time": 32.656219595703185,
          "velocity": 0.7165354330708661,
          "duration": 0.20637134960937686
        },
        {
          "name": "C#5",
          "midi": 73,
          "time": 33.09352005468756,
          "velocity": 0.6377952755905512,
          "duration": 0.43557710742187083
        },
        {
          "name": "A#5",
          "midi": 82,
          "time": 33.09352005468756,
          "velocity": 0.7480314960629921,
          "duration": 0.43557710742187083
        },
        {
          "name": "C#4",
          "midi": 61,
          "time": 33.09352005468756,
          "velocity": 0.7007874015748031,
          "duration": 0.20421716015624725
        },
        {
          "name": "C5",
          "midi": 72,
          "time": 33.53125135156255,
          "velocity": 0.6692913385826772,
          "duration": 0.18741448242187175
        },
        {
          "name": "A5",
          "midi": 81,
          "time": 33.53125135156255,
          "velocity": 0.7795275590551181,
          "duration": 0.18741448242187175
        },
        {
          "name": "F4",
          "midi": 65,
          "time": 33.53125135156255,
          "velocity": 0.7322834645669292,
          "duration": 0.2201581621093709
        },
        {
          "name": "A4",
          "midi": 69,
          "time": 33.9836311367188,
          "velocity": 0.6377952755905512,
          "duration": 0.4368696210937486
        },
        {
          "name": "F5",
          "midi": 77,
          "time": 33.9836311367188,
          "velocity": 0.7480314960629921,
          "duration": 0.4368696210937486
        },
        {
          "name": "F2",
          "midi": 41,
          "time": 33.9836311367188,
          "velocity": 0.6062992125984252,
          "duration": 0.14648488281250138
        },
        {
          "name": "F2",
          "midi": 41,
          "time": 34.130546857421926,
          "velocity": 0.5984251968503937,
          "duration": 0.1413148281249974
        },
        {
          "name": "F2",
          "midi": 41,
          "time": 34.27229252343755,
          "velocity": 0.5984251968503937,
          "duration": 0.14820823437499797
        },
        {
          "name": "F3",
          "midi": 53,
          "time": 34.42093159570317,
          "velocity": 0.6535433070866141,
          "duration": 0.4368696210937486
        },
        {
          "name": "A3",
          "midi": 57,
          "time": 34.42093159570317,
          "velocity": 0.7637795275590551,
          "duration": 0.4368696210937486
        },
        {
          "name": "F2",
          "midi": 41,
          "time": 34.42093159570317,
          "velocity": 0.7165354330708661,
          "duration": 0.20637134960937686
        },
        {
          "name": "A4",
          "midi": 69,
          "time": 34.85823205468755,
          "velocity": 0.6377952755905512,
          "duration": 0.43557710742187794
        },
        {
          "name": "F5",
          "midi": 77,
          "time": 34.85823205468755,
          "velocity": 0.7480314960629921,
          "duration": 0.43557710742187794
        },
        {
          "name": "F#4",
          "midi": 66,
          "time": 35.29596335156255,
          "velocity": 0.6299212598425197,
          "duration": 1.3265498652343766
        },
        {
          "name": "D#5",
          "midi": 75,
          "time": 35.29596335156255,
          "velocity": 0.7401574803149606,
          "duration": 1.3265498652343766
        },
        {
          "name": "F#3",
          "midi": 54,
          "time": 35.29596335156255,
          "velocity": 0.7322834645669292,
          "duration": 0.4519489472656275
        },
        {
          "name": "B2",
          "midi": 47,
          "time": 35.29596335156255,
          "velocity": 0.7322834645669292,
          "duration": 0.220158162109378
        },
        {
          "name": "F#3",
          "midi": 54,
          "time": 35.7483431367188,
          "velocity": 0.7007874015748031,
          "duration": 0.21714229687500364
        },
        {
          "name": "B2",
          "midi": 47,
          "time": 35.7483431367188,
          "velocity": 0.7007874015748031,
          "duration": 0.14648488281250138
        },
        {
          "name": "B2",
          "midi": 47,
          "time": 35.89525885742193,
          "velocity": 0.6929133858267716,
          "duration": 0.13269807031250025
        },
        {
          "name": "F#3",
          "midi": 54,
          "time": 35.96591627148443,
          "velocity": 0.6929133858267716,
          "duration": 0.099954390624994
        },
        {
          "name": "A#2",
          "midi": 46,
          "time": 36.03700452343755,
          "velocity": 0.6929133858267716,
          "duration": 0.13959147656250082
        },
        {
          "name": "F3",
          "midi": 53,
          "time": 36.072764068359426,
          "velocity": 0.6929133858267716,
          "duration": 0.10598612109374983
        },
        {
          "name": "F#3",
          "midi": 54,
          "time": 36.185643595703176,
          "velocity": 0.7165354330708661,
          "duration": 0.8728775664062525
        },
        {
          "name": "B2",
          "midi": 47,
          "time": 36.185643595703176,
          "velocity": 0.7165354330708661,
          "duration": 0.20637134960937686
        },
        {
          "name": "A#4",
          "midi": 70,
          "time": 36.62294405468755,
          "velocity": 0.6377952755905512,
          "duration": 0.43557710742187794
        },
        {
          "name": "F#5",
          "midi": 78,
          "time": 36.62294405468755,
          "velocity": 0.7480314960629921,
          "duration": 0.43557710742187794
        },
        {
          "name": "B2",
          "midi": 47,
          "time": 36.62294405468755,
          "velocity": 0.6062992125984252,
          "duration": 0.14605404492187546
        },
        {
          "name": "B2",
          "midi": 47,
          "time": 36.76942893750005,
          "velocity": 0.5984251968503937,
          "duration": 0.14174566601562333
        },
        {
          "name": "B2",
          "midi": 47,
          "time": 36.9116054414063,
          "velocity": 0.5984251968503937,
          "duration": 0.15553247851562446
        },
        {
          "name": "A#4",
          "midi": 70,
          "time": 37.06067535156255,
          "velocity": 0.6692913385826772,
          "duration": 0.4519489472656275
        },
        {
          "name": "F5",
          "midi": 77,
          "time": 37.06067535156255,
          "velocity": 0.7795275590551181,
          "duration": 0.4519489472656275
        },
        {
          "name": "F3",
          "midi": 53,
          "time": 37.06067535156255,
          "velocity": 0.7322834645669292,
          "duration": 0.4519489472656275
        },
        {
          "name": "A#2",
          "midi": 46,
          "time": 37.06067535156255,
          "velocity": 0.7322834645669292,
          "duration": 0.220158162109378
        },
        {
          "name": "F4",
          "midi": 65,
          "time": 37.513055136718805,
          "velocity": 0.6377952755905512,
          "duration": 0.8741700800781231
        },
        {
          "name": "C#5",
          "midi": 73,
          "time": 37.513055136718805,
          "velocity": 0.7480314960629921,
          "duration": 0.8741700800781231
        },
        {
          "name": "F3",
          "midi": 53,
          "time": 37.513055136718805,
          "velocity": 0.7007874015748031,
          "duration": 0.21714229687500364
        },
        {
          "name": "A#2",
          "midi": 46,
          "time": 37.513055136718805,
          "velocity": 0.7007874015748031,
          "duration": 0.14648488281250138
        },
        {
          "name": "A#2",
          "midi": 46,
          "time": 37.65997085742193,
          "velocity": 0.6929133858267716,
          "duration": 0.13269807031250025
        },
        {
          "name": "F3",
          "midi": 53,
          "time": 37.730628271484434,
          "velocity": 0.6929133858267716,
          "duration": 0.099954390624994
        },
        {
          "name": "G#2",
          "midi": 44,
          "time": 37.801716523437555,
          "velocity": 0.6929133858267716,
          "duration": 0.13959147656250082
        },
        {
          "name": "D#3",
          "midi": 51,
          "time": 37.83747606835943,
          "velocity": 0.6929133858267716,
          "duration": 0.10598612109374983
        },
        {
          "name": "F3",
          "midi": 53,
          "time": 37.95035559570318,
          "velocity": 0.7165354330708661,
          "duration": 0.8728775664062525
        },
        {
          "name": "A#2",
          "midi": 46,
          "time": 37.95035559570318,
          "velocity": 0.7165354330708661,
          "duration": 0.20637134960937686
        },
        {
          "name": "C#4",
          "midi": 61,
          "time": 38.387656054687554,
          "velocity": 0.6377952755905512,
          "duration": 0.43557710742187794
        },
        {
          "name": "A#4",
          "midi": 70,
          "time": 38.387656054687554,
          "velocity": 0.7480314960629921,
          "duration": 0.43557710742187794
        },
        {
          "name": "A#2",
          "midi": 46,
          "time": 38.387656054687554,
          "velocity": 0.6062992125984252,
          "duration": 0.14605404492187546
        },
        {
          "name": "A#2",
          "midi": 46,
          "time": 38.534140937500055,
          "velocity": 0.5984251968503937,
          "duration": 0.14174566601562333
        },
        {
          "name": "A#2",
          "midi": 46,
          "time": 38.676317441406304,
          "velocity": 0.5984251968503937,
          "duration": 0.15553247851562446
        },
        {
          "name": "E4",
          "midi": 64,
          "time": 38.825387351562554,
          "velocity": 0.6692913385826772,
          "duration": 0.23308329882812728
        },
        {
          "name": "C5",
          "midi": 72,
          "time": 38.825387351562554,
          "velocity": 0.7795275590551181,
          "duration": 0.23308329882812728
        },
        {
          "name": "E3",
          "midi": 52,
          "time": 38.825387351562554,
          "velocity": 0.7322834645669292,
          "duration": 0.4519489472656275
        },
        {
          "name": "C3",
          "midi": 48,
          "time": 38.825387351562554,
          "velocity": 0.7322834645669292,
          "duration": 0.220158162109378
        },
        {
          "name": "E4",
          "midi": 64,
          "time": 39.05890148828131,
          "velocity": 0.6299212598425197,
          "duration": 0.10038522851562703
        },
        {
          "name": "C5",
          "midi": 72,
          "time": 39.05890148828131,
          "velocity": 0.7401574803149606,
          "duration": 0.10684779687500168
        },
        {
          "name": "F4",
          "midi": 65,
          "time": 39.166180123046935,
          "velocity": 0.6299212598425197,
          "duration": 0.10469360742187206
        },
        {
          "name": "D5",
          "midi": 74,
          "time": 39.166180123046935,
          "velocity": 0.7401574803149606,
          "duration": 0.1111561757812467
        },
        {
          "name": "G4",
          "midi": 67,
          "time": 39.27776713671881,
          "velocity": 0.6377952755905512,
          "duration": 0.8741700800781302
        },
        {
          "name": "E5",
          "midi": 76,
          "time": 39.27776713671881,
          "velocity": 0.7480314960629921,
          "duration": 0.8741700800781302
        },
        {
          "name": "E3",
          "midi": 52,
          "time": 39.27776713671881,
          "velocity": 0.7007874015748031,
          "duration": 0.21714229687500364
        },
        {
          "name": "C3",
          "midi": 48,
          "time": 39.27776713671881,
          "velocity": 0.7007874015748031,
          "duration": 0.14648488281250138
        },
        {
          "name": "C3",
          "midi": 48,
          "time": 39.424682857421935,
          "velocity": 0.6929133858267716,
          "duration": 0.13269807031250025
        },
        {
          "name": "E3",
          "midi": 52,
          "time": 39.49534027148444,
          "velocity": 0.6929133858267716,
          "duration": 0.099954390624994
        },
        {
          "name": "B2",
          "midi": 47,
          "time": 39.56642852343756,
          "velocity": 0.6929133858267716,
          "duration": 0.13959147656250082
        },
        {
          "name": "F3",
          "midi": 53,
          "time": 39.60218806835943,
          "velocity": 0.6929133858267716,
          "duration": 0.10598612109374983
        },
        {
          "name": "G3",
          "midi": 55,
          "time": 39.71506759570318,
          "velocity": 0.7165354330708661,
          "duration": 0.21929648632812615
        },
        {
          "name": "C3",
          "midi": 48,
          "time": 39.71506759570318,
          "velocity": 0.7165354330708661,
          "duration": 0.20637134960937686
        },
        {
          "name": "G3",
          "midi": 55,
          "time": 39.934794919921934,
          "velocity": 0.6929133858267716,
          "duration": 0.09995439062500111
        },
        {
          "name": "A3",
          "midi": 57,
          "time": 40.041642716796936,
          "velocity": 0.6929133858267716,
          "duration": 0.10383193164062732
        },
        {
          "name": "A#4",
          "midi": 70,
          "time": 40.152368054687564,
          "velocity": 0.6377952755905512,
          "duration": 0.43557710742188505
        },
        {
          "name": "G5",
          "midi": 79,
          "time": 40.152368054687564,
          "velocity": 0.7480314960629921,
          "duration": 0.43557710742188505
        },
        {
          "name": "A#3",
          "midi": 58,
          "time": 40.152368054687564,
          "velocity": 0.7007874015748031,
          "duration": 0.20421716015625435
        },
        {
          "name": "C3",
          "midi": 48,
          "time": 40.152368054687564,
          "velocity": 0.6062992125984252,
          "duration": 0.14605404492187546
        },
        {
          "name": "C3",
          "midi": 48,
          "time": 40.298852937500065,
          "velocity": 0.5984251968503937,
          "duration": 0.14174566601563043
        },
        {
          "name": "C4",
          "midi": 60,
          "time": 40.36994118945319,
          "velocity": 0.6929133858267716,
          "duration": 0.2050788359375062
        },
        {
          "name": "C3",
          "midi": 48,
          "time": 40.44102944140632,
          "velocity": 0.5984251968503937,
          "duration": 0.15553247851562446
        },
        {
          "name": "A4",
          "midi": 69,
          "time": 40.59009935156257,
          "velocity": 0.6692913385826772,
          "duration": 0.220158162109378
        },
        {
          "name": "F5",
          "midi": 77,
          "time": 40.59009935156257,
          "velocity": 0.7795275590551181,
          "duration": 0.23308329882812728
        },
        {
          "name": "F2",
          "midi": 41,
          "time": 40.59009935156257,
          "velocity": 0.7322834645669292,
          "duration": 0.220158162109378
        },
        {
          "name": "F3",
          "midi": 53,
          "time": 40.823613488281325,
          "velocity": 0.6299212598425197,
          "duration": 0.04049876171875155
        },
        {
          "name": "A3",
          "midi": 57,
          "time": 40.823613488281325,
          "velocity": 0.6299212598425197,
          "duration": 0.03403619335937691
        },
        {
          "name": "F4",
          "midi": 65,
          "time": 40.823613488281325,
          "velocity": 0.7401574803149606,
          "duration": 0.04049876171875155
        },
        {
          "name": "F#3",
          "midi": 54,
          "time": 40.93089212304695,
          "velocity": 0.7165354330708661,
          "duration": 0.04480714062499658
        },
        {
          "name": "A#3",
          "midi": 58,
          "time": 40.93089212304695,
          "velocity": 0.7165354330708661,
          "duration": 0.04480714062499658
        },
        {
          "name": "F4",
          "midi": 65,
          "time": 40.93089212304695,
          "velocity": 0.6771653543307087,
          "duration": 0.04480714062499658
        },
        {
          "name": "G3",
          "midi": 55,
          "time": 41.042479136718825,
          "velocity": 0.7244094488188977,
          "duration": 0.0848750644531222
        },
        {
          "name": "A#3",
          "midi": 58,
          "time": 41.042479136718825,
          "velocity": 0.6377952755905512,
          "duration": 0.0848750644531222
        },
        {
          "name": "F4",
          "midi": 65,
          "time": 41.042479136718825,
          "velocity": 0.6850393700787402,
          "duration": 0.0848750644531222
        },
        {
          "name": "F2",
          "midi": 41,
          "time": 41.042479136718825,
          "velocity": 0.6377952755905512,
          "duration": 0.20421716015624725
        },
        {
          "name": "D#3",
          "midi": 51,
          "time": 41.042479136718825,
          "velocity": 0.7165354330708661,
          "duration": 0.21714229687499653
        },
        {
          "name": "G3",
          "midi": 55,
          "time": 41.26005227148445,
          "velocity": 0.5354330708661418,
          "duration": 0.04006792382812563
        },
        {
          "name": "A#3",
          "midi": 58,
          "time": 41.26005227148445,
          "velocity": 0.5354330708661418,
          "duration": 0.04006792382812563
        },
        {
          "name": "F4",
          "midi": 65,
          "time": 41.26005227148445,
          "velocity": 0.6141732283464567,
          "duration": 0.04006792382812563
        },
        {
          "name": "G3",
          "midi": 55,
          "time": 41.36690006835945,
          "velocity": 0.6220472440944882,
          "duration": 0.04609965429687435
        },
        {
          "name": "A#3",
          "midi": 58,
          "time": 41.36690006835945,
          "velocity": 0.6220472440944882,
          "duration": 0.05256222265624899
        },
        {
          "name": "F4",
          "midi": 65,
          "time": 41.36690006835945,
          "velocity": 0.5826771653543307,
          "duration": 0.04609965429687435
        },
        {
          "name": "G#3",
          "midi": 56,
          "time": 41.4797795957032,
          "velocity": 0.7401574803149606,
          "duration": 0.08702925390625182
        },
        {
          "name": "C4",
          "midi": 60,
          "time": 41.4797795957032,
          "velocity": 0.7401574803149606,
          "duration": 0.08702925390625182
        },
        {
          "name": "F4",
          "midi": 65,
          "time": 41.4797795957032,
          "velocity": 0.7007874015748031,
          "duration": 0.08702925390625182
        },
        {
          "name": "F2",
          "midi": 41,
          "time": 41.4797795957032,
          "velocity": 0.6535433070866141,
          "duration": 0.20637134960937686
        },
        {
          "name": "D#3",
          "midi": 51,
          "time": 41.4797795957032,
          "velocity": 0.7637795275590551,
          "duration": 0.21929648632812615
        },
        {
          "name": "G#3",
          "midi": 56,
          "time": 41.69950691992195,
          "velocity": 0.5354330708661418,
          "duration": 0.04006792382812563
        },
        {
          "name": "C4",
          "midi": 60,
          "time": 41.69950691992195,
          "velocity": 0.5354330708661418,
          "duration": 0.04006792382812563
        },
        {
          "name": "F4",
          "midi": 65,
          "time": 41.69950691992195,
          "velocity": 0.6141732283464567,
          "duration": 0.04006792382812563
        },
        {
          "name": "G#3",
          "midi": 56,
          "time": 41.80635471679695,
          "velocity": 0.6220472440944882,
          "duration": 0.043945464843751836
        },
        {
          "name": "C4",
          "midi": 60,
          "time": 41.80635471679695,
          "velocity": 0.6220472440944882,
          "duration": 0.05040803320312648
        },
        {
          "name": "F4",
          "midi": 65,
          "time": 41.80635471679695,
          "velocity": 0.5826771653543307,
          "duration": 0.043945464843751836
        },
        {
          "name": "A3",
          "midi": 57,
          "time": 41.91708005468758,
          "velocity": 0.6299212598425197,
          "duration": 0.0848750644531222
        },
        {
          "name": "C#4",
          "midi": 61,
          "time": 41.91708005468758,
          "velocity": 0.6299212598425197,
          "duration": 0.0848750644531222
        },
        {
          "name": "F4",
          "midi": 65,
          "time": 41.91708005468758,
          "velocity": 0.5905511811023622,
          "duration": 0.0848750644531222
        },
        {
          "name": "G2",
          "midi": 43,
          "time": 41.91708005468758,
          "velocity": 0.6377952755905512,
          "duration": 0.20421716015624725
        },
        {
          "name": "E3",
          "midi": 52,
          "time": 41.91708005468758,
          "velocity": 0.7480314960629921,
          "duration": 0.21714229687499653
        },
        {
          "name": "A3",
          "midi": 57,
          "time": 42.1346531894532,
          "velocity": 0.5354330708661418,
          "duration": 0.08573674023437405
        },
        {
          "name": "C#4",
          "midi": 61,
          "time": 42.1346531894532,
          "velocity": 0.5354330708661418,
          "duration": 0.09909271484374926
        },
        {
          "name": "F4",
          "midi": 65,
          "time": 42.1346531894532,
          "velocity": 0.6141732283464567,
          "duration": 0.09909271484374926
        },
        {
          "name": "A2",
          "midi": 45,
          "time": 42.1346531894532,
          "velocity": 0.6299212598425197,
          "duration": 0.2050788359374991
        },
        {
          "name": "F3",
          "midi": 53,
          "time": 42.1346531894532,
          "velocity": 0.7401574803149606,
          "duration": 0.2050788359374991
        },
        {
          "name": "A#4",
          "midi": 70,
          "time": 42.354811351562574,
          "velocity": 0.7322834645669292,
          "duration": 0.220158162109378
        },
        {
          "name": "D4",
          "midi": 62,
          "time": 42.354811351562574,
          "velocity": 0.7322834645669292,
          "duration": 0.220158162109378
        },
        {
          "name": "A#2",
          "midi": 46,
          "time": 42.354811351562574,
          "velocity": 0.7322834645669292,
          "duration": 0.220158162109378
        },
        {
          "name": "F4",
          "midi": 65,
          "time": 42.80719113671883,
          "velocity": 0.7007874015748031,
          "duration": 0.4368696210937486
        },
        {
          "name": "A#3",
          "midi": 58,
          "time": 42.80719113671883,
          "velocity": 0.7007874015748031,
          "duration": 0.4368696210937486
        },
        {
          "name": "A#2",
          "midi": 46,
          "time": 42.80719113671883,
          "velocity": 0.7007874015748031,
          "duration": 0.14648488281250138
        },
        {
          "name": "A#2",
          "midi": 46,
          "time": 42.954106857421955,
          "velocity": 0.6929133858267716,
          "duration": 0.13269807031250025
        },
        {
          "name": "G#2",
          "midi": 44,
          "time": 43.09585252343758,
          "velocity": 0.6929133858267716,
          "duration": 0.13959147656250082
        },
        {
          "name": "F3",
          "midi": 53,
          "time": 43.2444915957032,
          "velocity": 0.7165354330708661,
          "duration": 0.8728775664062596
        },
        {
          "name": "A#2",
          "midi": 46,
          "time": 43.2444915957032,
          "velocity": 0.7165354330708661,
          "duration": 0.20637134960937686
        },
        {
          "name": "D4",
          "midi": 62,
          "time": 43.571066716796956,
          "velocity": 0.6299212598425197,
          "duration": 0.11029450000000196
        },
        {
          "name": "A#4",
          "midi": 70,
          "time": 43.571066716796956,
          "velocity": 0.7086614173228346,
          "duration": 0.11029450000000196
        },
        {
          "name": "D4",
          "midi": 62,
          "time": 43.681792054687584,
          "velocity": 0.6377952755905512,
          "duration": 0.10383193164062732
        },
        {
          "name": "A#4",
          "midi": 70,
          "time": 43.681792054687584,
          "velocity": 0.7480314960629921,
          "duration": 0.11029450000000196
        },
        {
          "name": "A#2",
          "midi": 46,
          "time": 43.681792054687584,
          "velocity": 0.7007874015748031,
          "duration": 0.20421716015625435
        },
        {
          "name": "D#4",
          "midi": 63,
          "time": 43.79251739257821,
          "velocity": 0.6299212598425197,
          "duration": 0.09995439062500111
        },
        {
          "name": "C5",
          "midi": 72,
          "time": 43.79251739257821,
          "velocity": 0.7401574803149606,
          "duration": 0.10641695898437575
        },
        {
          "name": "F4",
          "midi": 65,
          "time": 43.89936518945321,
          "velocity": 0.6299212598425197,
          "duration": 0.09995439062500111
        },
        {
          "name": "D5",
          "midi": 74,
          "time": 43.89936518945321,
          "velocity": 0.7401574803149606,
          "duration": 0.10641695898437575
        },
        {
          "name": "F#4",
          "midi": 66,
          "time": 44.006212986328215,
          "velocity": 0.6299212598425197,
          "duration": 0.10469360742187206
        },
        {
          "name": "D#5",
          "midi": 75,
          "time": 44.006212986328215,
          "velocity": 0.7401574803149606,
          "duration": 0.1111561757812467
        },
        {
          "name": "G#4",
          "midi": 68,
          "time": 44.119523351562584,
          "velocity": 0.6692913385826772,
          "duration": 0.889249406250002
        },
        {
          "name": "F5",
          "midi": 77,
          "time": 44.119523351562584,
          "velocity": 0.7795275590551181,
          "duration": 0.889249406250002
        },
        {
          "name": "G#2",
          "midi": 44,
          "time": 44.119523351562584,
          "velocity": 0.7322834645669292,
          "duration": 0.220158162109378
        },
        {
          "name": "A#3",
          "midi": 58,
          "time": 44.460316123046965,
          "velocity": 0.6929133858267716,
          "duration": 0.1111561757812467
        },
        {
          "name": "A#3",
          "midi": 58,
          "time": 44.57190313671884,
          "velocity": 0.7007874015748031,
          "duration": 0.10426276953125324
        },
        {
          "name": "G#2",
          "midi": 44,
          "time": 44.57190313671884,
          "velocity": 0.7007874015748031,
          "duration": 0.14648488281250138
        },
        {
          "name": "C4",
          "midi": 60,
          "time": 44.68305931250009,
          "velocity": 0.6929133858267716,
          "duration": 0.09952355273437519
        },
        {
          "name": "G#2",
          "midi": 44,
          "time": 44.718818857421965,
          "velocity": 0.6929133858267716,
          "duration": 0.13269807031250025
        },
        {
          "name": "D4",
          "midi": 62,
          "time": 44.78947627148447,
          "velocity": 0.6929133858267716,
          "duration": 0.099954390624994
        },
        {
          "name": "F#2",
          "midi": 42,
          "time": 44.86056452343759,
          "velocity": 0.6929133858267716,
          "duration": 0.13959147656250082
        },
        {
          "name": "D#4",
          "midi": 63,
          "time": 44.89632406835946,
          "velocity": 0.6929133858267716,
          "duration": 0.10598612109374983
        },
        {
          "name": "F4",
          "midi": 65,
          "time": 45.00920359570321,
          "velocity": 0.7165354330708661,
          "duration": 0.8728775664062454
        },
        {
          "name": "G#2",
          "midi": 44,
          "time": 45.00920359570321,
          "velocity": 0.7165354330708661,
          "duration": 0.20637134960937686
        },
        {
          "name": "G#4",
          "midi": 68,
          "time": 45.228930919921964,
          "velocity": 0.6299212598425197,
          "duration": 0.21714229687499653
        },
        {
          "name": "F5",
          "midi": 77,
          "time": 45.228930919921964,
          "velocity": 0.7086614173228346,
          "duration": 0.21714229687499653
        },
        {
          "name": "G#4",
          "midi": 68,
          "time": 45.44650405468759,
          "velocity": 0.6377952755905512,
          "duration": 0.1374372871093783
        },
        {
          "name": "F5",
          "midi": 77,
          "time": 45.44650405468759,
          "velocity": 0.7480314960629921,
          "duration": 0.14605404492187546
        },
        {
          "name": "G#2",
          "midi": 44,
          "time": 45.44650405468759,
          "velocity": 0.7007874015748031,
          "duration": 0.20421716015625435
        },
        {
          "name": "A#4",
          "midi": 70,
          "time": 45.59298893750009,
          "velocity": 0.6299212598425197,
          "duration": 0.13312890820312617
        },
        {
          "name": "F#5",
          "midi": 78,
          "time": 45.59298893750009,
          "velocity": 0.7401574803149606,
          "duration": 0.14174566601562333
        },
        {
          "name": "C5",
          "midi": 72,
          "time": 45.73516544140634,
          "velocity": 0.6299212598425197,
          "duration": 0.13829896289062305
        },
        {
          "name": "G#5",
          "midi": 80,
          "time": 45.73516544140634,
          "velocity": 0.7401574803149606,
          "duration": 0.1469157207031202
        },
        {
          "name": "C#5",
          "midi": 73,
          "time": 45.88423535156258,
          "velocity": 0.6692913385826772,
          "duration": 0.889249406250002
        },
        {
          "name": "A#5",
          "midi": 82,
          "time": 45.88423535156258,
          "velocity": 0.7795275590551181,
          "duration": 0.889249406250002
        },
        {
          "name": "F#2",
          "midi": 42,
          "time": 45.88423535156258,
          "velocity": 0.7322834645669292,
          "duration": 0.220158162109378
        },
        {
          "name": "F#3",
          "midi": 54,
          "time": 46.22502812304696,
          "velocity": 0.6929133858267716,
          "duration": 0.1111561757812467
        },
        {
          "name": "F#3",
          "midi": 54,
          "time": 46.336615136718834,
          "velocity": 0.7007874015748031,
          "duration": 0.10426276953125324
        },
        {
          "name": "F#2",
          "midi": 42,
          "time": 46.336615136718834,
          "velocity": 0.7007874015748031,
          "duration": 0.14648488281250138
        },
        {
          "name": "G#3",
          "midi": 56,
          "time": 46.44777131250009,
          "velocity": 0.6929133858267716,
          "duration": 0.09952355273437519
        },
        {
          "name": "F#2",
          "midi": 42,
          "time": 46.48353085742196,
          "velocity": 0.6929133858267716,
          "duration": 0.13269807031250025
        },
        {
          "name": "A#3",
          "midi": 58,
          "time": 46.55418827148446,
          "velocity": 0.6929133858267716,
          "duration": 0.099954390624994
        },
        {
          "name": "E2",
          "midi": 40,
          "time": 46.625276523437584,
          "velocity": 0.6850393700787402,
          "duration": 0.13959147656250082
        },
        {
          "name": "C4",
          "midi": 60,
          "time": 46.66103606835946,
          "velocity": 0.6929133858267716,
          "duration": 0.10598612109374983
        },
        {
          "name": "C#4",
          "midi": 61,
          "time": 46.77391559570321,
          "velocity": 0.7165354330708661,
          "duration": 0.4368696210937557
        },
        {
          "name": "F#2",
          "midi": 42,
          "time": 46.77391559570321,
          "velocity": 0.6220472440944882,
          "duration": 0.23265246093750136
        },
        {
          "name": "C#5",
          "midi": 73,
          "time": 47.10049071679696,
          "velocity": 0.6299212598425197,
          "duration": 0.11029450000000196
        },
        {
          "name": "A#5",
          "midi": 82,
          "time": 47.10049071679696,
          "velocity": 0.7086614173228346,
          "duration": 0.11029450000000196
        },
        {
          "name": "C#5",
          "midi": 73,
          "time": 47.21121605468759,
          "velocity": 0.6377952755905512,
          "duration": 0.1374372871093783
        },
        {
          "name": "A#5",
          "midi": 82,
          "time": 47.21121605468759,
          "velocity": 0.7480314960629921,
          "duration": 0.14605404492187546
        },
        {
          "name": "F#2",
          "midi": 42,
          "time": 47.21121605468759,
          "velocity": 0.6062992125984252,
          "duration": 0.23049827148437885
        },
        {
          "name": "F#3",
          "midi": 54,
          "time": 47.21121605468759,
          "velocity": 0.7007874015748031,
          "duration": 0.43557710742187083
        },
        {
          "name": "C5",
          "midi": 72,
          "time": 47.35770093750009,
          "velocity": 0.6299212598425197,
          "duration": 0.13312890820312617
        },
        {
          "name": "G#5",
          "midi": 80,
          "time": 47.35770093750009,
          "velocity": 0.7401574803149606,
          "duration": 0.14174566601562333
        },
        {
          "name": "A#4",
          "midi": 70,
          "time": 47.49987744140634,
          "velocity": 0.6299212598425197,
          "duration": 0.13829896289062305
        },
        {
          "name": "F#5",
          "midi": 78,
          "time": 47.49987744140634,
          "velocity": 0.7401574803149606,
          "duration": 0.1469157207031202
        },
        {
          "name": "C5",
          "midi": 72,
          "time": 47.64894735156258,
          "velocity": 0.6692913385826772,
          "duration": 0.15294745117187603
        },
        {
          "name": "G#5",
          "midi": 80,
          "time": 47.64894735156258,
          "velocity": 0.7795275590551181,
          "duration": 0.16156420898437318
        },
        {
          "name": "F3",
          "midi": 53,
          "time": 47.64894735156258,
          "velocity": 0.7322834645669292,
          "duration": 0.5988646679687406
        },
        {
          "name": "C#3",
          "midi": 49,
          "time": 47.64894735156258,
          "velocity": 0.7322834645669292,
          "duration": 0.2201581621093709
        },
        {
          "name": "A#4",
          "midi": 70,
          "time": 47.953980578125076,
          "velocity": 0.6299212598425197,
          "duration": 0.13829896289062305
        },
        {
          "name": "F#5",
          "midi": 78,
          "time": 47.953980578125076,
          "velocity": 0.7401574803149606,
          "duration": 0.1469157207031202
        },
        {
          "name": "G#4",
          "midi": 68,
          "time": 48.10132713671882,
          "velocity": 0.6377952755905512,
          "duration": 0.8741700800781231
        },
        {
          "name": "F5",
          "midi": 77,
          "time": 48.10132713671882,
          "velocity": 0.7480314960629921,
          "duration": 0.8741700800781231
        },
        {
          "name": "C#3",
          "midi": 49,
          "time": 48.10132713671882,
          "velocity": 0.7007874015748031,
          "duration": 0.14648488281250138
        },
        {
          "name": "F3",
          "midi": 53,
          "time": 48.24824285742195,
          "velocity": 0.6929133858267716,
          "duration": 0.13269807031250025
        },
        {
          "name": "C#3",
          "midi": 49,
          "time": 48.24824285742195,
          "velocity": 0.6929133858267716,
          "duration": 0.13269807031250025
        },
        {
          "name": "D#3",
          "midi": 51,
          "time": 48.38998852343757,
          "velocity": 0.6929133858267716,
          "duration": 0.13959147656250082
        },
        {
          "name": "C3",
          "midi": 48,
          "time": 48.38998852343757,
          "velocity": 0.6929133858267716,
          "duration": 0.13959147656250082
        },
        {
          "name": "F3",
          "midi": 53,
          "time": 48.5386275957032,
          "velocity": 0.7165354330708661,
          "duration": 0.8728775664062454
        },
        {
          "name": "C#3",
          "midi": 49,
          "time": 48.5386275957032,
          "velocity": 0.7165354330708661,
          "duration": 0.20637134960937686
        },
        {
          "name": "G#4",
          "midi": 68,
          "time": 48.97592805468757,
          "velocity": 0.6377952755905512,
          "duration": 0.43557710742187083
        },
        {
          "name": "F5",
          "midi": 77,
          "time": 48.97592805468757,
          "velocity": 0.7480314960629921,
          "duration": 0.43557710742187083
        },
        {
          "name": "C#3",
          "midi": 49,
          "time": 48.97592805468757,
          "velocity": 0.7007874015748031,
          "duration": 0.20421716015624725
        },
        {
          "name": "F#4",
          "midi": 66,
          "time": 49.413659351562565,
          "velocity": 0.6692913385826772,
          "duration": 0.23308329882812728
        },
        {
          "name": "D#5",
          "midi": 75,
          "time": 49.413659351562565,
          "velocity": 0.7795275590551181,
          "duration": 0.23308329882812728
        },
        {
          "name": "F#3",
          "midi": 54,
          "time": 49.413659351562565,
          "velocity": 0.7322834645669292,
          "duration": 0.4519489472656275
        },
        {
          "name": "B2",
          "midi": 47,
          "time": 49.413659351562565,
          "velocity": 0.7322834645669292,
          "duration": 0.220158162109378
        },
        {
          "name": "F#4",
          "midi": 66,
          "time": 49.64717348828132,
          "velocity": 0.6299212598425197,
          "duration": 0.10038522851562703
        },
        {
          "name": "D#5",
          "midi": 75,
          "time": 49.64717348828132,
          "velocity": 0.7401574803149606,
          "duration": 0.10684779687500168
        },
        {
          "name": "G#4",
          "midi": 68,
          "time": 49.754452123046946,
          "velocity": 0.6299212598425197,
          "duration": 0.10469360742187206
        },
        {
          "name": "F5",
          "midi": 77,
          "time": 49.754452123046946,
          "velocity": 0.7401574803149606,
          "duration": 0.1111561757812467
        },
        {
          "name": "A#4",
          "midi": 70,
          "time": 49.86603913671882,
          "velocity": 0.6377952755905512,
          "duration": 0.8741700800781231
        },
        {
          "name": "F#5",
          "midi": 78,
          "time": 49.86603913671882,
          "velocity": 0.7480314960629921,
          "duration": 0.8741700800781231
        },
        {
          "name": "F#3",
          "midi": 54,
          "time": 49.86603913671882,
          "velocity": 0.7007874015748031,
          "duration": 0.21714229687500364
        },
        {
          "name": "B2",
          "midi": 47,
          "time": 49.86603913671882,
          "velocity": 0.7007874015748031,
          "duration": 0.14648488281250138
        },
        {
          "name": "B2",
          "midi": 47,
          "time": 50.012954857421946,
          "velocity": 0.6929133858267716,
          "duration": 0.13269807031250025
        },
        {
          "name": "F#3",
          "midi": 54,
          "time": 50.08361227148445,
          "velocity": 0.6929133858267716,
          "duration": 0.099954390624994
        },
        {
          "name": "A#2",
          "midi": 46,
          "time": 50.15470052343757,
          "velocity": 0.6929133858267716,
          "duration": 0.13959147656250082
        },
        {
          "name": "G#3",
          "midi": 56,
          "time": 50.19046006835944,
          "velocity": 0.6929133858267716,
          "duration": 0.10598612109374983
        },
        {
          "name": "A#3",
          "midi": 58,
          "time": 50.30333959570319,
          "velocity": 0.7165354330708661,
          "duration": 0.8728775664062596
        },
        {
          "name": "B2",
          "midi": 47,
          "time": 50.30333959570319,
          "velocity": 0.7165354330708661,
          "duration": 0.20637134960937686
        },
        {
          "name": "G#4",
          "midi": 68,
          "time": 50.74064005468757,
          "velocity": 0.6377952755905512,
          "duration": 0.20421716015625435
        },
        {
          "name": "F5",
          "midi": 77,
          "time": 50.74064005468757,
          "velocity": 0.7480314960629921,
          "duration": 0.21714229687500364
        },
        {
          "name": "B2",
          "midi": 47,
          "time": 50.74064005468757,
          "velocity": 0.6062992125984252,
          "duration": 0.14605404492187546
        },
        {
          "name": "B2",
          "midi": 47,
          "time": 50.88712493750007,
          "velocity": 0.5984251968503937,
          "duration": 0.14174566601563043
        },
        {
          "name": "F#4",
          "midi": 66,
          "time": 50.9582131894532,
          "velocity": 0.6299212598425197,
          "duration": 0.2050788359375062
        },
        {
          "name": "D#5",
          "midi": 75,
          "time": 50.9582131894532,
          "velocity": 0.7401574803149606,
          "duration": 0.21800397265625548
        },
        {
          "name": "B2",
          "midi": 47,
          "time": 51.029301441406325,
          "velocity": 0.5984251968503937,
          "duration": 0.15553247851562446
        },
        {
          "name": "F4",
          "midi": 65,
          "time": 51.178371351562575,
          "velocity": 0.6692913385826772,
          "duration": 0.23308329882812728
        },
        {
          "name": "C#5",
          "midi": 73,
          "time": 51.178371351562575,
          "velocity": 0.7795275590551181,
          "duration": 0.23308329882812728
        },
        {
          "name": "F3",
          "midi": 53,
          "time": 51.178371351562575,
          "velocity": 0.7322834645669292,
          "duration": 0.4519489472656275
        },
        {
          "name": "A#2",
          "midi": 46,
          "time": 51.178371351562575,
          "velocity": 0.7322834645669292,
          "duration": 0.220158162109378
        },
        {
          "name": "F4",
          "midi": 65,
          "time": 51.41188548828133,
          "velocity": 0.6299212598425197,
          "duration": 0.10038522851562703
        },
        {
          "name": "C#5",
          "midi": 73,
          "time": 51.41188548828133,
          "velocity": 0.7401574803149606,
          "duration": 0.10684779687500168
        },
        {
          "name": "F#4",
          "midi": 66,
          "time": 51.519164123046956,
          "velocity": 0.6299212598425197,
          "duration": 0.10469360742187206
        },
        {
          "name": "D#5",
          "midi": 75,
          "time": 51.519164123046956,
          "velocity": 0.7401574803149606,
          "duration": 0.1111561757812467
        },
        {
          "name": "G#4",
          "midi": 68,
          "time": 51.63075113671883,
          "velocity": 0.6377952755905512,
          "duration": 0.8741700800781231
        },
        {
          "name": "F5",
          "midi": 77,
          "time": 51.63075113671883,
          "velocity": 0.7480314960629921,
          "duration": 0.8741700800781231
        },
        {
          "name": "F3",
          "midi": 53,
          "time": 51.63075113671883,
          "velocity": 0.7007874015748031,
          "duration": 0.21714229687500364
        },
        {
          "name": "A#2",
          "midi": 46,
          "time": 51.63075113671883,
          "velocity": 0.7007874015748031,
          "duration": 0.14648488281250138
        },
        {
          "name": "A#2",
          "midi": 46,
          "time": 51.777666857421956,
          "velocity": 0.6929133858267716,
          "duration": 0.13269807031250025
        },
        {
          "name": "F3",
          "midi": 53,
          "time": 51.84832427148446,
          "velocity": 0.6929133858267716,
          "duration": 0.099954390624994
        },
        {
          "name": "G#2",
          "midi": 44,
          "time": 51.91941252343758,
          "velocity": 0.6929133858267716,
          "duration": 0.13959147656250082
        },
        {
          "name": "F#3",
          "midi": 54,
          "time": 51.95517206835945,
          "velocity": 0.6929133858267716,
          "duration": 0.10598612109374983
        },
        {
          "name": "G#3",
          "midi": 56,
          "time": 52.0680515957032,
          "velocity": 0.7165354330708661,
          "duration": 0.8728775664062596
        },
        {
          "name": "A#2",
          "midi": 46,
          "time": 52.0680515957032,
          "velocity": 0.7165354330708661,
          "duration": 0.20637134960937686
        },
        {
          "name": "F#4",
          "midi": 66,
          "time": 52.50535205468758,
          "velocity": 0.6377952755905512,
          "duration": 0.20421716015625435
        },
        {
          "name": "D#5",
          "midi": 75,
          "time": 52.50535205468758,
          "velocity": 0.7480314960629921,
          "duration": 0.21714229687500364
        },
        {
          "name": "A#2",
          "midi": 46,
          "time": 52.50535205468758,
          "velocity": 0.6062992125984252,
          "duration": 0.14605404492187546
        },
        {
          "name": "A#2",
          "midi": 46,
          "time": 52.65183693750008,
          "velocity": 0.5984251968503937,
          "duration": 0.14174566601563043
        },
        {
          "name": "F4",
          "midi": 65,
          "time": 52.72292518945321,
          "velocity": 0.6299212598425197,
          "duration": 0.2050788359375062
        },
        {
          "name": "C#5",
          "midi": 73,
          "time": 52.72292518945321,
          "velocity": 0.7401574803149606,
          "duration": 0.21800397265625548
        },
        {
          "name": "A#2",
          "midi": 46,
          "time": 52.794013441406335,
          "velocity": 0.5984251968503937,
          "duration": 0.15553247851562446
        },
        {
          "name": "E4",
          "midi": 64,
          "time": 52.943083351562585,
          "velocity": 0.6692913385826772,
          "duration": 0.23308329882812728
        },
        {
          "name": "C5",
          "midi": 72,
          "time": 52.943083351562585,
          "velocity": 0.7795275590551181,
          "duration": 0.23308329882812728
        },
        {
          "name": "E3",
          "midi": 52,
          "time": 52.943083351562585,
          "velocity": 0.7322834645669292,
          "duration": 0.4519489472656275
        },
        {
          "name": "C3",
          "midi": 48,
          "time": 52.943083351562585,
          "velocity": 0.7322834645669292,
          "duration": 0.220158162109378
        },
        {
          "name": "E4",
          "midi": 64,
          "time": 53.17659748828134,
          "velocity": 0.6299212598425197,
          "duration": 0.10038522851562703
        },
        {
          "name": "C5",
          "midi": 72,
          "time": 53.17659748828134,
          "velocity": 0.7401574803149606,
          "duration": 0.10684779687500168
        },
        {
          "name": "F4",
          "midi": 65,
          "time": 53.283876123046966,
          "velocity": 0.6299212598425197,
          "duration": 0.10469360742187206
        },
        {
          "name": "D5",
          "midi": 74,
          "time": 53.283876123046966,
          "velocity": 0.7401574803149606,
          "duration": 0.1111561757812467
        },
        {
          "name": "G4",
          "midi": 67,
          "time": 53.39546313671884,
          "velocity": 0.6377952755905512,
          "duration": 0.8741700800781302
        },
        {
          "name": "E5",
          "midi": 76,
          "time": 53.39546313671884,
          "velocity": 0.7480314960629921,
          "duration": 0.8741700800781302
        },
        {
          "name": "E3",
          "midi": 52,
          "time": 53.39546313671884,
          "velocity": 0.7007874015748031,
          "duration": 0.21714229687500364
        },
        {
          "name": "C3",
          "midi": 48,
          "time": 53.39546313671884,
          "velocity": 0.7007874015748031,
          "duration": 0.14648488281250138
        },
        {
          "name": "C3",
          "midi": 48,
          "time": 53.542378857421966,
          "velocity": 0.6929133858267716,
          "duration": 0.13269807031250025
        },
        {
          "name": "E3",
          "midi": 52,
          "time": 53.61303627148447,
          "velocity": 0.6929133858267716,
          "duration": 0.099954390624994
        },
        {
          "name": "B2",
          "midi": 47,
          "time": 53.68412452343759,
          "velocity": 0.6929133858267716,
          "duration": 0.13959147656250082
        },
        {
          "name": "F3",
          "midi": 53,
          "time": 53.71988406835946,
          "velocity": 0.6929133858267716,
          "duration": 0.10598612109374983
        },
        {
          "name": "G3",
          "midi": 55,
          "time": 53.83276359570321,
          "velocity": 0.7165354330708661,
          "duration": 0.21929648632812615
        },
        {
          "name": "C3",
          "midi": 48,
          "time": 53.83276359570321,
          "velocity": 0.7165354330708661,
          "duration": 0.20637134960937686
        },
        {
          "name": "G3",
          "midi": 55,
          "time": 54.052490919921965,
          "velocity": 0.6929133858267716,
          "duration": 0.09995439062500111
        },
        {
          "name": "A3",
          "midi": 57,
          "time": 54.15933871679697,
          "velocity": 0.6929133858267716,
          "duration": 0.10383193164062732
        },
        {
          "name": "A#4",
          "midi": 70,
          "time": 54.270064054687595,
          "velocity": 0.6377952755905512,
          "duration": 0.43557710742188505
        },
        {
          "name": "G5",
          "midi": 79,
          "time": 54.270064054687595,
          "velocity": 0.7480314960629921,
          "duration": 0.43557710742188505
        },
        {
          "name": "A#3",
          "midi": 58,
          "time": 54.270064054687595,
          "velocity": 0.7007874015748031,
          "duration": 0.20421716015625435
        },
        {
          "name": "C3",
          "midi": 48,
          "time": 54.270064054687595,
          "velocity": 0.6062992125984252,
          "duration": 0.14605404492187546
        },
        {
          "name": "C3",
          "midi": 48,
          "time": 54.416548937500096,
          "velocity": 0.5984251968503937,
          "duration": 0.14174566601563043
        },
        {
          "name": "C4",
          "midi": 60,
          "time": 54.487637189453224,
          "velocity": 0.6929133858267716,
          "duration": 0.2050788359375062
        },
        {
          "name": "C3",
          "midi": 48,
          "time": 54.55872544140635,
          "velocity": 0.5984251968503937,
          "duration": 0.15553247851562446
        },
        {
          "name": "A4",
          "midi": 69,
          "time": 54.7077953515626,
          "velocity": 0.6692913385826772,
          "duration": 0.220158162109378
        },
        {
          "name": "F5",
          "midi": 77,
          "time": 54.7077953515626,
          "velocity": 0.7795275590551181,
          "duration": 0.23308329882812728
        },
        {
          "name": "F2",
          "midi": 41,
          "time": 54.7077953515626,
          "velocity": 0.7322834645669292,
          "duration": 0.220158162109378
        },
        {
          "name": "A3",
          "midi": 57,
          "time": 54.941309488281355,
          "velocity": 0.5354330708661418,
          "duration": 0.10684779687500168
        },
        {
          "name": "F4",
          "midi": 65,
          "time": 54.941309488281355,
          "velocity": 0.6456692913385826,
          "duration": 0.10684779687500168
        },
        {
          "name": "A3",
          "midi": 57,
          "time": 55.04858812304698,
          "velocity": 0.5354330708661418,
          "duration": 0.1111561757812467
        },
        {
          "name": "F4",
          "midi": 65,
          "time": 55.04858812304698,
          "velocity": 0.6141732283464567,
          "duration": 0.1111561757812467
        },
        {
          "name": "A3",
          "midi": 57,
          "time": 55.160175136718856,
          "velocity": 0.6377952755905512,
          "duration": 0.21714229687499653
        },
        {
          "name": "F4",
          "midi": 65,
          "time": 55.160175136718856,
          "velocity": 0.7165354330708661,
          "duration": 0.21714229687499653
        },
        {
          "name": "F2",
          "midi": 41,
          "time": 55.160175136718856,
          "velocity": 0.7007874015748031,
          "duration": 0.20421716015624725
        },
        {
          "name": "A3",
          "midi": 57,
          "time": 55.37774827148448,
          "velocity": 0.5354330708661418,
          "duration": 0.10641695898437575
        },
        {
          "name": "F4",
          "midi": 65,
          "time": 55.37774827148448,
          "velocity": 0.6141732283464567,
          "duration": 0.10641695898437575
        },
        {
          "name": "A3",
          "midi": 57,
          "time": 55.48459606835948,
          "velocity": 0.5354330708661418,
          "duration": 0.11244868945312447
        },
        {
          "name": "F4",
          "midi": 65,
          "time": 55.48459606835948,
          "velocity": 0.6141732283464567,
          "duration": 0.11244868945312447
        },
        {
          "name": "A3",
          "midi": 57,
          "time": 55.59747559570323,
          "velocity": 0.6535433070866141,
          "duration": 0.21929648632812615
        },
        {
          "name": "F4",
          "midi": 65,
          "time": 55.59747559570323,
          "velocity": 0.7322834645669292,
          "duration": 0.21929648632812615
        },
        {
          "name": "F2",
          "midi": 41,
          "time": 55.59747559570323,
          "velocity": 0.7165354330708661,
          "duration": 0.20637134960937686
        },
        {
          "name": "A3",
          "midi": 57,
          "time": 55.81720291992198,
          "velocity": 0.5354330708661418,
          "duration": 0.10641695898437575
        },
        {
          "name": "F4",
          "midi": 65,
          "time": 55.81720291992198,
          "velocity": 0.6141732283464567,
          "duration": 0.10641695898437575
        },
        {
          "name": "A3",
          "midi": 57,
          "time": 55.924050716796984,
          "velocity": 0.5354330708661418,
          "duration": 0.11029450000000196
        },
        {
          "name": "F4",
          "midi": 65,
          "time": 55.924050716796984,
          "velocity": 0.6141732283464567,
          "duration": 0.11029450000000196
        },
        {
          "name": "A3",
          "midi": 57,
          "time": 56.03477605468761,
          "velocity": 0.6377952755905512,
          "duration": 0.21714229687499653
        },
        {
          "name": "F4",
          "midi": 65,
          "time": 56.03477605468761,
          "velocity": 0.7165354330708661,
          "duration": 0.21714229687499653
        },
        {
          "name": "G2",
          "midi": 43,
          "time": 56.03477605468761,
          "velocity": 0.7007874015748031,
          "duration": 0.20421716015624725
        },
        {
          "name": "A3",
          "midi": 57,
          "time": 56.252349189453234,
          "velocity": 0.6299212598425197,
          "duration": 0.2050788359374991
        },
        {
          "name": "F4",
          "midi": 65,
          "time": 56.252349189453234,
          "velocity": 0.7086614173228346,
          "duration": 0.21800397265624838
        },
        {
          "name": "A2",
          "midi": 45,
          "time": 56.252349189453234,
          "velocity": 0.6929133858267716,
          "duration": 0.2050788359374991
        },
        {
          "name": "A#4",
          "midi": 70,
          "time": 56.472507351562605,
          "velocity": 0.7322834645669292,
          "duration": 0.220158162109378
        },
        {
          "name": "D4",
          "midi": 62,
          "time": 56.472507351562605,
          "velocity": 0.7322834645669292,
          "duration": 0.220158162109378
        },
        {
          "name": "A#2",
          "midi": 46,
          "time": 56.472507351562605,
          "velocity": 0.7322834645669292,
          "duration": 0.220158162109378
        },
        {
          "name": "F4",
          "midi": 65,
          "time": 56.92488713671886,
          "velocity": 0.7007874015748031,
          "duration": 0.4368696210937486
        },
        {
          "name": "A#3",
          "midi": 58,
          "time": 56.92488713671886,
          "velocity": 0.7007874015748031,
          "duration": 0.4368696210937486
        },
        {
          "name": "A#2",
          "midi": 46,
          "time": 56.92488713671886,
          "velocity": 0.7007874015748031,
          "duration": 0.14648488281250138
        },
        {
          "name": "A#2",
          "midi": 46,
          "time": 57.071802857421986,
          "velocity": 0.6929133858267716,
          "duration": 0.13269807031250025
        },
        {
          "name": "G#2",
          "midi": 44,
          "time": 57.21354852343761,
          "velocity": 0.6929133858267716,
          "duration": 0.13959147656250082
        },
        {
          "name": "F3",
          "midi": 53,
          "time": 57.36218759570323,
          "velocity": 0.7165354330708661,
          "duration": 0.8728775664062596
        },
        {
          "name": "A#2",
          "midi": 46,
          "time": 57.36218759570323,
          "velocity": 0.7165354330708661,
          "duration": 0.20637134960937686
        },
        {
          "name": "D4",
          "midi": 62,
          "time": 57.68876271679699,
          "velocity": 0.6299212598425197,
          "duration": 0.11029450000000196
        },
        {
          "name": "A#4",
          "midi": 70,
          "time": 57.68876271679699,
          "velocity": 0.7086614173228346,
          "duration": 0.11029450000000196
        },
        {
          "name": "D4",
          "midi": 62,
          "time": 57.799488054687615,
          "velocity": 0.6377952755905512,
          "duration": 0.10383193164062732
        },
        {
          "name": "A#4",
          "midi": 70,
          "time": 57.799488054687615,
          "velocity": 0.7480314960629921,
          "duration": 0.11029450000000196
        },
        {
          "name": "A#2",
          "midi": 46,
          "time": 57.799488054687615,
          "velocity": 0.7007874015748031,
          "duration": 0.20421716015625435
        },
        {
          "name": "D#4",
          "midi": 63,
          "time": 57.91021339257824,
          "velocity": 0.6299212598425197,
          "duration": 0.09995439062500111
        },
        {
          "name": "C5",
          "midi": 72,
          "time": 57.91021339257824,
          "velocity": 0.7401574803149606,
          "duration": 0.10641695898437575
        },
        {
          "name": "F4",
          "midi": 65,
          "time": 58.017061189453244,
          "velocity": 0.6299212598425197,
          "duration": 0.09995439062500111
        },
        {
          "name": "D5",
          "midi": 74,
          "time": 58.017061189453244,
          "velocity": 0.7401574803149606,
          "duration": 0.10641695898437575
        },
        {
          "name": "F#4",
          "midi": 66,
          "time": 58.123908986328246,
          "velocity": 0.6299212598425197,
          "duration": 0.10469360742187206
        },
        {
          "name": "D#5",
          "midi": 75,
          "time": 58.123908986328246,
          "velocity": 0.7401574803149606,
          "duration": 0.1111561757812467
        },
        {
          "name": "G#4",
          "midi": 68,
          "time": 58.237219351562615,
          "velocity": 0.6692913385826772,
          "duration": 0.889249406250002
        },
        {
          "name": "F5",
          "midi": 77,
          "time": 58.237219351562615,
          "velocity": 0.7795275590551181,
          "duration": 0.889249406250002
        },
        {
          "name": "G#2",
          "midi": 44,
          "time": 58.237219351562615,
          "velocity": 0.7322834645669292,
          "duration": 0.220158162109378
        },
        {
          "name": "A#3",
          "midi": 58,
          "time": 58.578012123046996,
          "velocity": 0.6929133858267716,
          "duration": 0.1111561757812467
        },
        {
          "name": "A#3",
          "midi": 58,
          "time": 58.68959913671887,
          "velocity": 0.7007874015748031,
          "duration": 0.10426276953125324
        },
        {
          "name": "G#2",
          "midi": 44,
          "time": 58.68959913671887,
          "velocity": 0.7007874015748031,
          "duration": 0.14648488281250138
        },
        {
          "name": "C4",
          "midi": 60,
          "time": 58.80075531250012,
          "velocity": 0.6929133858267716,
          "duration": 0.09952355273437519
        },
        {
          "name": "G#2",
          "midi": 44,
          "time": 58.836514857421996,
          "velocity": 0.6929133858267716,
          "duration": 0.13269807031250025
        },
        {
          "name": "D4",
          "midi": 62,
          "time": 58.9071722714845,
          "velocity": 0.6929133858267716,
          "duration": 0.099954390624994
        },
        {
          "name": "F#2",
          "midi": 42,
          "time": 58.97826052343762,
          "velocity": 0.6929133858267716,
          "duration": 0.13959147656250082
        },
        {
          "name": "D#4",
          "midi": 63,
          "time": 59.01402006835949,
          "velocity": 0.6929133858267716,
          "duration": 0.10598612109374983
        },
        {
          "name": "F4",
          "midi": 65,
          "time": 59.12689959570324,
          "velocity": 0.7165354330708661,
          "duration": 0.8728775664062454
        },
        {
          "name": "G#2",
          "midi": 44,
          "time": 59.12689959570324,
          "velocity": 0.7165354330708661,
          "duration": 0.20637134960937686
        },
        {
          "name": "G#4",
          "midi": 68,
          "time": 59.346626919921995,
          "velocity": 0.6299212598425197,
          "duration": 0.21714229687499653
        },
        {
          "name": "F5",
          "midi": 77,
          "time": 59.346626919921995,
          "velocity": 0.7086614173228346,
          "duration": 0.21714229687499653
        },
        {
          "name": "G#4",
          "midi": 68,
          "time": 59.56420005468762,
          "velocity": 0.6377952755905512,
          "duration": 0.1374372871093783
        },
        {
          "name": "F5",
          "midi": 77,
          "time": 59.56420005468762,
          "velocity": 0.7480314960629921,
          "duration": 0.14605404492187546
        },
        {
          "name": "G#2",
          "midi": 44,
          "time": 59.56420005468762,
          "velocity": 0.7007874015748031,
          "duration": 0.20421716015625435
        },
        {
          "name": "A#4",
          "midi": 70,
          "time": 59.71068493750012,
          "velocity": 0.6299212598425197,
          "duration": 0.13312890820312617
        },
        {
          "name": "F#5",
          "midi": 78,
          "time": 59.71068493750012,
          "velocity": 0.7401574803149606,
          "duration": 0.14174566601562333
        },
        {
          "name": "C5",
          "midi": 72,
          "time": 59.85286144140637,
          "velocity": 0.6299212598425197,
          "duration": 0.13829896289062305
        },
        {
          "name": "G#5",
          "midi": 80,
          "time": 59.85286144140637,
          "velocity": 0.7401574803149606,
          "duration": 0.1469157207031202
        },
        {
          "name": "C#5",
          "midi": 73,
          "time": 60.00193135156261,
          "velocity": 0.6299212598425197,
          "duration": 1.3265498652343766
        },
        {
          "name": "A#5",
          "midi": 82,
          "time": 60.00193135156261,
          "velocity": 0.7401574803149606,
          "duration": 1.3265498652343766
        },
        {
          "name": "F#2",
          "midi": 42,
          "time": 60.00193135156261,
          "velocity": 0.7322834645669292,
          "duration": 0.220158162109378
        },
        {
          "name": "F#3",
          "midi": 54,
          "time": 60.34272412304699,
          "velocity": 0.6929133858267716,
          "duration": 0.1111561757812467
        },
        {
          "name": "F#3",
          "midi": 54,
          "time": 60.454311136718864,
          "velocity": 0.7007874015748031,
          "duration": 0.10426276953125324
        },
        {
          "name": "F#2",
          "midi": 42,
          "time": 60.454311136718864,
          "velocity": 0.7007874015748031,
          "duration": 0.14648488281250138
        },
        {
          "name": "G#3",
          "midi": 56,
          "time": 60.56546731250012,
          "velocity": 0.6929133858267716,
          "duration": 0.09952355273437519
        },
        {
          "name": "F#2",
          "midi": 42,
          "time": 60.60122685742199,
          "velocity": 0.6929133858267716,
          "duration": 0.13269807031250025
        },
        {
          "name": "A#3",
          "midi": 58,
          "time": 60.671884271484494,
          "velocity": 0.6929133858267716,
          "duration": 0.099954390624994
        },
        {
          "name": "E2",
          "midi": 40,
          "time": 60.742972523437615,
          "velocity": 0.6850393700787402,
          "duration": 0.13959147656250082
        },
        {
          "name": "C4",
          "midi": 60,
          "time": 60.77873206835949,
          "velocity": 0.6929133858267716,
          "duration": 0.10598612109374983
        },
        {
          "name": "C#4",
          "midi": 61,
          "time": 60.89161159570324,
          "velocity": 0.7165354330708661,
          "duration": 0.4368696210937486
        },
        {
          "name": "F#2",
          "midi": 42,
          "time": 60.89161159570324,
          "velocity": 0.6220472440944882,
          "duration": 0.23265246093750136
        },
        {
          "name": "F5",
          "midi": 77,
          "time": 61.32891205468761,
          "velocity": 0.6377952755905512,
          "duration": 0.43557710742187083
        },
        {
          "name": "C#6",
          "midi": 85,
          "time": 61.32891205468761,
          "velocity": 0.7480314960629921,
          "duration": 0.43557710742187083
        },
        {
          "name": "F#2",
          "midi": 42,
          "time": 61.32891205468761,
          "velocity": 0.6062992125984252,
          "duration": 0.23049827148437174
        },
        {
          "name": "F#3",
          "midi": 54,
          "time": 61.32891205468761,
          "velocity": 0.7007874015748031,
          "duration": 0.43557710742187083
        },
        {
          "name": "E5",
          "midi": 76,
          "time": 61.76664335156261,
          "velocity": 0.6692913385826772,
          "duration": 0.18741448242187175
        },
        {
          "name": "C6",
          "midi": 84,
          "time": 61.76664335156261,
          "velocity": 0.7795275590551181,
          "duration": 0.18741448242187175
        },
        {
          "name": "F3",
          "midi": 53,
          "time": 61.76664335156261,
          "velocity": 0.7322834645669292,
          "duration": 0.8892494062499949
        },
        {
          "name": "F2",
          "midi": 41,
          "time": 61.76664335156261,
          "velocity": 0.7322834645669292,
          "duration": 0.2201581621093709
        },
        {
          "name": "C5",
          "midi": 72,
          "time": 62.21902313671885,
          "velocity": 0.6377952755905512,
          "duration": 0.8741700800781231
        },
        {
          "name": "A5",
          "midi": 81,
          "time": 62.21902313671885,
          "velocity": 0.7480314960629921,
          "duration": 0.8741700800781231
        },
        {
          "name": "F2",
          "midi": 41,
          "time": 62.21902313671885,
          "velocity": 0.7007874015748031,
          "duration": 0.14648488281250138
        },
        {
          "name": "F2",
          "midi": 41,
          "time": 62.36593885742198,
          "velocity": 0.6929133858267716,
          "duration": 0.13269807031250025
        },
        {
          "name": "D#2",
          "midi": 39,
          "time": 62.507684523437604,
          "velocity": 0.6850393700787402,
          "duration": 0.13959147656250082
        },
        {
          "name": "A3",
          "midi": 57,
          "time": 62.65632359570323,
          "velocity": 0.7165354330708661,
          "duration": 0.8728775664062454
        },
        {
          "name": "F2",
          "midi": 41,
          "time": 62.65632359570323,
          "velocity": 0.6220472440944882,
          "duration": 0.23265246093750136
        },
        {
          "name": "A4",
          "midi": 69,
          "time": 63.0936240546876,
          "velocity": 0.6377952755905512,
          "duration": 0.43557710742187083
        },
        {
          "name": "F5",
          "midi": 77,
          "time": 63.0936240546876,
          "velocity": 0.7480314960629921,
          "duration": 0.43557710742187083
        },
        {
          "name": "F2",
          "midi": 41,
          "time": 63.0936240546876,
          "velocity": 0.6062992125984252,
          "duration": 0.23049827148437174
        },
        {
          "name": "A#4",
          "midi": 70,
          "time": 63.531355351562596,
          "velocity": 0.6299212598425197,
          "duration": 1.3265498652343695
        },
        {
          "name": "F#5",
          "midi": 78,
          "time": 63.531355351562596,
          "velocity": 0.7401574803149606,
          "duration": 1.3265498652343695
        },
        {
          "name": "E2",
          "midi": 40,
          "time": 63.531355351562596,
          "velocity": 0.7244094488188977,
          "duration": 0.15294745117187603
        },
        {
          "name": "A#2",
          "midi": 46,
          "time": 63.693350398437595,
          "velocity": 0.6929133858267716,
          "duration": 0.13399058398437802
        },
        {
          "name": "C#3",
          "midi": 49,
          "time": 63.836388578125096,
          "velocity": 0.6929133858267716,
          "duration": 0.13829896289062305
        },
        {
          "name": "E3",
          "midi": 52,
          "time": 63.98373513671884,
          "velocity": 0.7007874015748031,
          "duration": 0.13786812500000423
        },
        {
          "name": "A#3",
          "midi": 58,
          "time": 64.13065085742197,
          "velocity": 0.6929133858267716,
          "duration": 0.13269807031250025
        },
        {
          "name": "C#4",
          "midi": 61,
          "time": 64.27239652343759,
          "velocity": 0.6929133858267716,
          "duration": 0.13959147656250082
        },
        {
          "name": "E4",
          "midi": 64,
          "time": 64.42103559570322,
          "velocity": 0.7165354330708661,
          "duration": 0.20637134960936976
        },
        {
          "name": "C#5",
          "midi": 73,
          "time": 64.85833605468758,
          "velocity": 0.6377952755905512,
          "duration": 0.43557710742187794
        },
        {
          "name": "A#5",
          "midi": 82,
          "time": 64.85833605468758,
          "velocity": 0.7480314960629921,
          "duration": 0.43557710742187794
        },
        {
          "name": "C#4",
          "midi": 61,
          "time": 64.85833605468758,
          "velocity": 0.7007874015748031,
          "duration": 0.20421716015624725
        },
        {
          "name": "C5",
          "midi": 72,
          "time": 65.29606735156258,
          "velocity": 0.6692913385826772,
          "duration": 0.18741448242187175
        },
        {
          "name": "A5",
          "midi": 81,
          "time": 65.29606735156258,
          "velocity": 0.7795275590551181,
          "duration": 0.18741448242187175
        },
        {
          "name": "F4",
          "midi": 65,
          "time": 65.29606735156258,
          "velocity": 0.7322834645669292,
          "duration": 0.2201581621093709
        },
        {
          "name": "A4",
          "midi": 69,
          "time": 65.74844713671882,
          "velocity": 0.6377952755905512,
          "duration": 0.4368696210937486
        },
        {
          "name": "F5",
          "midi": 77,
          "time": 65.74844713671882,
          "velocity": 0.7480314960629921,
          "duration": 0.4368696210937486
        },
        {
          "name": "F2",
          "midi": 41,
          "time": 65.74844713671882,
          "velocity": 0.6062992125984252,
          "duration": 0.14648488281250138
        },
        {
          "name": "F2",
          "midi": 41,
          "time": 65.89536285742194,
          "velocity": 0.5984251968503937,
          "duration": 0.1413148281250045
        },
        {
          "name": "F2",
          "midi": 41,
          "time": 66.03710852343757,
          "velocity": 0.5984251968503937,
          "duration": 0.14820823437500508
        },
        {
          "name": "F3",
          "midi": 53,
          "time": 66.18574759570319,
          "velocity": 0.6535433070866141,
          "duration": 0.4368696210937486
        },
        {
          "name": "A3",
          "midi": 57,
          "time": 66.18574759570319,
          "velocity": 0.7637795275590551,
          "duration": 0.4368696210937486
        },
        {
          "name": "F2",
          "midi": 41,
          "time": 66.18574759570319,
          "velocity": 0.7165354330708661,
          "duration": 0.20637134960936976
        },
        {
          "name": "A4",
          "midi": 69,
          "time": 66.62304805468756,
          "velocity": 0.6377952755905512,
          "duration": 0.43557710742187794
        },
        {
          "name": "F5",
          "midi": 77,
          "time": 66.62304805468756,
          "velocity": 0.7480314960629921,
          "duration": 0.43557710742187794
        },
        {
          "name": "A#4",
          "midi": 70,
          "time": 67.06077935156256,
          "velocity": 0.6299212598425197,
          "duration": 1.3265498652343553
        },
        {
          "name": "F#5",
          "midi": 78,
          "time": 67.06077935156256,
          "velocity": 0.7401574803149606,
          "duration": 1.3265498652343553
        },
        {
          "name": "E2",
          "midi": 40,
          "time": 67.06077935156256,
          "velocity": 0.7244094488188977,
          "duration": 0.15294745117186892
        },
        {
          "name": "A#2",
          "midi": 46,
          "time": 67.22277439843755,
          "velocity": 0.6929133858267716,
          "duration": 0.13399058398437091
        },
        {
          "name": "C#3",
          "midi": 49,
          "time": 67.36581257812504,
          "velocity": 0.6929133858267716,
          "duration": 0.13829896289063015
        },
        {
          "name": "E3",
          "midi": 52,
          "time": 67.5131591367188,
          "velocity": 0.7007874015748031,
          "duration": 0.13786812499999712
        },
        {
          "name": "A#3",
          "midi": 58,
          "time": 67.66007485742192,
          "velocity": 0.6929133858267716,
          "duration": 0.13269807031250025
        },
        {
          "name": "C#4",
          "midi": 61,
          "time": 67.80182052343754,
          "velocity": 0.6929133858267716,
          "duration": 0.13959147656250082
        },
        {
          "name": "E4",
          "midi": 64,
          "time": 67.95045959570317,
          "velocity": 0.7165354330708661,
          "duration": 0.20637134960936976
        },
        {
          "name": "C#5",
          "midi": 73,
          "time": 68.38776005468753,
          "velocity": 0.6377952755905512,
          "duration": 0.43557710742187794
        },
        {
          "name": "A#5",
          "midi": 82,
          "time": 68.38776005468753,
          "velocity": 0.7480314960629921,
          "duration": 0.43557710742187794
        },
        {
          "name": "C#4",
          "midi": 61,
          "time": 68.38776005468753,
          "velocity": 0.7007874015748031,
          "duration": 0.20421716015624725
        },
        {
          "name": "C5",
          "midi": 72,
          "time": 68.82549135156253,
          "velocity": 0.6692913385826772,
          "duration": 0.18741448242187175
        },
        {
          "name": "A5",
          "midi": 81,
          "time": 68.82549135156253,
          "velocity": 0.7795275590551181,
          "duration": 0.18741448242187175
        },
        {
          "name": "F4",
          "midi": 65,
          "time": 68.82549135156253,
          "velocity": 0.7322834645669292,
          "duration": 0.2201581621093709
        },
        {
          "name": "A4",
          "midi": 69,
          "time": 69.27787113671877,
          "velocity": 0.6377952755905512,
          "duration": 0.4368696210937486
        },
        {
          "name": "F5",
          "midi": 77,
          "time": 69.27787113671877,
          "velocity": 0.7480314960629921,
          "duration": 0.4368696210937486
        },
        {
          "name": "F2",
          "midi": 41,
          "time": 69.27787113671877,
          "velocity": 0.6062992125984252,
          "duration": 0.14648488281250138
        },
        {
          "name": "F2",
          "midi": 41,
          "time": 69.42478685742189,
          "velocity": 0.5984251968503937,
          "duration": 0.1413148281250045
        },
        {
          "name": "F2",
          "midi": 41,
          "time": 69.56653252343752,
          "velocity": 0.5984251968503937,
          "duration": 0.14820823437500508
        },
        {
          "name": "F3",
          "midi": 53,
          "time": 69.71517159570314,
          "velocity": 0.6535433070866141,
          "duration": 0.4368696210937486
        },
        {
          "name": "A3",
          "midi": 57,
          "time": 69.71517159570314,
          "velocity": 0.7637795275590551,
          "duration": 0.4368696210937486
        },
        {
          "name": "F2",
          "midi": 41,
          "time": 69.71517159570314,
          "velocity": 0.7165354330708661,
          "duration": 0.20637134960936976
        },
        {
          "name": "A4",
          "midi": 69,
          "time": 70.15247205468751,
          "velocity": 0.6377952755905512,
          "duration": 0.43557710742187794
        },
        {
          "name": "F5",
          "midi": 77,
          "time": 70.15247205468751,
          "velocity": 0.7480314960629921,
          "duration": 0.43557710742187794
        },
        {
          "name": "F#4",
          "midi": 66,
          "time": 70.59020335156251,
          "velocity": 0.6299212598425197,
          "duration": 1.3265498652343553
        },
        {
          "name": "D#5",
          "midi": 75,
          "time": 70.59020335156251,
          "velocity": 0.7401574803149606,
          "duration": 1.3265498652343553
        },
        {
          "name": "F#3",
          "midi": 54,
          "time": 70.59020335156251,
          "velocity": 0.7322834645669292,
          "duration": 0.4519489472656204
        },
        {
          "name": "B2",
          "midi": 47,
          "time": 70.59020335156251,
          "velocity": 0.7322834645669292,
          "duration": 0.2201581621093709
        },
        {
          "name": "F#3",
          "midi": 54,
          "time": 71.04258313671875,
          "velocity": 0.7007874015748031,
          "duration": 0.21714229687499653
        },
        {
          "name": "B2",
          "midi": 47,
          "time": 71.04258313671875,
          "velocity": 0.7007874015748031,
          "duration": 0.14648488281250138
        },
        {
          "name": "B2",
          "midi": 47,
          "time": 71.18949885742187,
          "velocity": 0.6929133858267716,
          "duration": 0.13269807031250025
        },
        {
          "name": "F#3",
          "midi": 54,
          "time": 71.26015627148436,
          "velocity": 0.6929133858267716,
          "duration": 0.09995439062500111
        },
        {
          "name": "A#2",
          "midi": 46,
          "time": 71.33124452343749,
          "velocity": 0.6929133858267716,
          "duration": 0.13959147656250082
        },
        {
          "name": "F3",
          "midi": 53,
          "time": 71.36700406835936,
          "velocity": 0.6929133858267716,
          "duration": 0.10598612109374983
        },
        {
          "name": "F#3",
          "midi": 54,
          "time": 71.47988359570311,
          "velocity": 0.7165354330708661,
          "duration": 0.8728775664062169
        },
        {
          "name": "B2",
          "midi": 47,
          "time": 71.47988359570311,
          "velocity": 0.7165354330708661,
          "duration": 0.20637134960936976
        },
        {
          "name": "A#4",
          "midi": 70,
          "time": 71.91718405468748,
          "velocity": 0.6377952755905512,
          "duration": 0.4355771074218495
        },
        {
          "name": "F#5",
          "midi": 78,
          "time": 71.91718405468748,
          "velocity": 0.7480314960629921,
          "duration": 0.4355771074218495
        },
        {
          "name": "B2",
          "midi": 47,
          "time": 71.91718405468748,
          "velocity": 0.6062992125984252,
          "duration": 0.14605404492186835
        },
        {
          "name": "B2",
          "midi": 47,
          "time": 72.06366893749997,
          "velocity": 0.5984251968503937,
          "duration": 0.14174566601562333
        },
        {
          "name": "B2",
          "midi": 47,
          "time": 72.20584544140621,
          "velocity": 0.5984251968503937,
          "duration": 0.15553247851562446
        },
        {
          "name": "A#4",
          "midi": 70,
          "time": 72.35491535156245,
          "velocity": 0.6692913385826772,
          "duration": 0.4519489472656346
        },
        {
          "name": "F5",
          "midi": 77,
          "time": 72.35491535156245,
          "velocity": 0.7795275590551181,
          "duration": 0.4519489472656346
        },
        {
          "name": "F3",
          "midi": 53,
          "time": 72.35491535156245,
          "velocity": 0.7322834645669292,
          "duration": 0.4519489472656346
        },
        {
          "name": "A#2",
          "midi": 46,
          "time": 72.35491535156245,
          "velocity": 0.7322834645669292,
          "duration": 0.2201581621093851
        },
        {
          "name": "F4",
          "midi": 65,
          "time": 72.80729513671871,
          "velocity": 0.6377952755905512,
          "duration": 0.874170080078116
        },
        {
          "name": "C#5",
          "midi": 73,
          "time": 72.80729513671871,
          "velocity": 0.7480314960629921,
          "duration": 0.874170080078116
        },
        {
          "name": "F3",
          "midi": 53,
          "time": 72.80729513671871,
          "velocity": 0.7007874015748031,
          "duration": 0.21714229687499653
        },
        {
          "name": "A#2",
          "midi": 46,
          "time": 72.80729513671871,
          "velocity": 0.7007874015748031,
          "duration": 0.14648488281250138
        },
        {
          "name": "A#2",
          "midi": 46,
          "time": 72.95421085742183,
          "velocity": 0.6929133858267716,
          "duration": 0.13269807031250025
        },
        {
          "name": "F3",
          "midi": 53,
          "time": 73.02486827148432,
          "velocity": 0.6929133858267716,
          "duration": 0.09995439062500111
        },
        {
          "name": "G#2",
          "midi": 44,
          "time": 73.09595652343745,
          "velocity": 0.6929133858267716,
          "duration": 0.13959147656250082
        },
        {
          "name": "D#3",
          "midi": 51,
          "time": 73.13171606835932,
          "velocity": 0.6929133858267716,
          "duration": 0.10598612109374983
        },
        {
          "name": "F3",
          "midi": 53,
          "time": 73.24459559570307,
          "velocity": 0.7165354330708661,
          "duration": 0.8728775664062169
        },
        {
          "name": "A#2",
          "midi": 46,
          "time": 73.24459559570307,
          "velocity": 0.7165354330708661,
          "duration": 0.20637134960936976
        },
        {
          "name": "C#4",
          "midi": 61,
          "time": 73.68189605468744,
          "velocity": 0.6377952755905512,
          "duration": 0.4355771074218495
        },
        {
          "name": "A#4",
          "midi": 70,
          "time": 73.68189605468744,
          "velocity": 0.7480314960629921,
          "duration": 0.4355771074218495
        },
        {
          "name": "A#2",
          "midi": 46,
          "time": 73.68189605468744,
          "velocity": 0.6062992125984252,
          "duration": 0.14605404492186835
        },
        {
          "name": "A#2",
          "midi": 46,
          "time": 73.82838093749993,
          "velocity": 0.5984251968503937,
          "duration": 0.14174566601562333
        },
        {
          "name": "A#2",
          "midi": 46,
          "time": 73.97055744140617,
          "velocity": 0.5984251968503937,
          "duration": 0.15553247851562446
        },
        {
          "name": "E4",
          "midi": 64,
          "time": 74.11962735156241,
          "velocity": 0.6692913385826772,
          "duration": 0.2330832988281344
        },
        {
          "name": "C5",
          "midi": 72,
          "time": 74.11962735156241,
          "velocity": 0.7795275590551181,
          "duration": 0.2330832988281344
        },
        {
          "name": "E3",
          "midi": 52,
          "time": 74.11962735156241,
          "velocity": 0.7322834645669292,
          "duration": 0.4519489472656346
        },
        {
          "name": "C3",
          "midi": 48,
          "time": 74.11962735156241,
          "velocity": 0.7322834645669292,
          "duration": 0.2201581621093851
        },
        {
          "name": "E4",
          "midi": 64,
          "time": 74.35314148828117,
          "velocity": 0.6299212598425197,
          "duration": 0.10038522851561993
        },
        {
          "name": "C5",
          "midi": 72,
          "time": 74.35314148828117,
          "velocity": 0.7401574803149606,
          "duration": 0.10684779687500168
        },
        {
          "name": "F4",
          "midi": 65,
          "time": 74.46042012304679,
          "velocity": 0.6299212598425197,
          "duration": 0.10469360742187916
        },
        {
          "name": "D5",
          "midi": 74,
          "time": 74.46042012304679,
          "velocity": 0.7401574803149606,
          "duration": 0.11115617578126091
        },
        {
          "name": "G4",
          "midi": 67,
          "time": 74.57200713671867,
          "velocity": 0.6377952755905512,
          "duration": 0.874170080078116
        },
        {
          "name": "E5",
          "midi": 76,
          "time": 74.57200713671867,
          "velocity": 0.7480314960629921,
          "duration": 0.874170080078116
        },
        {
          "name": "E3",
          "midi": 52,
          "time": 74.57200713671867,
          "velocity": 0.7007874015748031,
          "duration": 0.21714229687499653
        },
        {
          "name": "C3",
          "midi": 48,
          "time": 74.57200713671867,
          "velocity": 0.7007874015748031,
          "duration": 0.14648488281250138
        },
        {
          "name": "C3",
          "midi": 48,
          "time": 74.71892285742179,
          "velocity": 0.6929133858267716,
          "duration": 0.13269807031250025
        },
        {
          "name": "E3",
          "midi": 52,
          "time": 74.78958027148428,
          "velocity": 0.6929133858267716,
          "duration": 0.09995439062500111
        },
        {
          "name": "B2",
          "midi": 47,
          "time": 74.86066852343741,
          "velocity": 0.6929133858267716,
          "duration": 0.13959147656250082
        },
        {
          "name": "F3",
          "midi": 53,
          "time": 74.89642806835928,
          "velocity": 0.6929133858267716,
          "duration": 0.10598612109374983
        },
        {
          "name": "G3",
          "midi": 55,
          "time": 75.00930759570304,
          "velocity": 0.7165354330708661,
          "duration": 0.21929648632811904
        },
        {
          "name": "C3",
          "midi": 48,
          "time": 75.00930759570304,
          "velocity": 0.7165354330708661,
          "duration": 0.20637134960936976
        },
        {
          "name": "G3",
          "midi": 55,
          "time": 75.22903491992177,
          "velocity": 0.6929133858267716,
          "duration": 0.09995439062500111
        },
        {
          "name": "A3",
          "midi": 57,
          "time": 75.33588271679677,
          "velocity": 0.6929133858267716,
          "duration": 0.10383193164062732
        },
        {
          "name": "A#4",
          "midi": 70,
          "time": 75.4466080546874,
          "velocity": 0.6377952755905512,
          "duration": 0.4355771074218353
        },
        {
          "name": "G5",
          "midi": 79,
          "time": 75.4466080546874,
          "velocity": 0.7480314960629921,
          "duration": 0.4355771074218353
        },
        {
          "name": "A#3",
          "midi": 58,
          "time": 75.4466080546874,
          "velocity": 0.7007874015748031,
          "duration": 0.20421716015623304
        },
        {
          "name": "C3",
          "midi": 48,
          "time": 75.4466080546874,
          "velocity": 0.6062992125984252,
          "duration": 0.14605404492186835
        },
        {
          "name": "C3",
          "midi": 48,
          "time": 75.59309293749989,
          "velocity": 0.5984251968503937,
          "duration": 0.14174566601560912
        },
        {
          "name": "C4",
          "midi": 60,
          "time": 75.664181189453,
          "velocity": 0.6929133858267716,
          "duration": 0.20507883593748488
        },
        {
          "name": "C3",
          "midi": 48,
          "time": 75.73526944140612,
          "velocity": 0.5984251968503937,
          "duration": 0.15553247851562446
        },
        {
          "name": "A4",
          "midi": 69,
          "time": 75.88433935156236,
          "velocity": 0.6692913385826772,
          "duration": 0.2201581621093851
        },
        {
          "name": "F5",
          "midi": 77,
          "time": 75.88433935156236,
          "velocity": 0.7795275590551181,
          "duration": 0.2330832988281344
        },
        {
          "name": "F2",
          "midi": 41,
          "time": 75.88433935156236,
          "velocity": 0.7322834645669292,
          "duration": 0.2201581621093851
        },
        {
          "name": "F3",
          "midi": 53,
          "time": 76.11785348828111,
          "velocity": 0.6299212598425197,
          "duration": 0.04049876171875155
        },
        {
          "name": "A3",
          "midi": 57,
          "time": 76.11785348828111,
          "velocity": 0.6299212598425197,
          "duration": 0.034036193359369804
        },
        {
          "name": "F4",
          "midi": 65,
          "time": 76.11785348828111,
          "velocity": 0.7401574803149606,
          "duration": 0.04049876171875155
        },
        {
          "name": "F#3",
          "midi": 54,
          "time": 76.22513212304673,
          "velocity": 0.7165354330708661,
          "duration": 0.04480714062499658
        },
        {
          "name": "A#3",
          "midi": 58,
          "time": 76.22513212304673,
          "velocity": 0.7165354330708661,
          "duration": 0.04480714062499658
        },
        {
          "name": "F4",
          "midi": 65,
          "time": 76.22513212304673,
          "velocity": 0.6771653543307087,
          "duration": 0.04480714062499658
        },
        {
          "name": "G3",
          "midi": 55,
          "time": 76.3367191367186,
          "velocity": 0.7244094488188977,
          "duration": 0.08487506445312931
        },
        {
          "name": "A#3",
          "midi": 58,
          "time": 76.3367191367186,
          "velocity": 0.6377952755905512,
          "duration": 0.08487506445312931
        },
        {
          "name": "F4",
          "midi": 65,
          "time": 76.3367191367186,
          "velocity": 0.6850393700787402,
          "duration": 0.08487506445312931
        },
        {
          "name": "F2",
          "midi": 41,
          "time": 76.3367191367186,
          "velocity": 0.6377952755905512,
          "duration": 0.20421716015624725
        },
        {
          "name": "D#3",
          "midi": 51,
          "time": 76.3367191367186,
          "velocity": 0.7165354330708661,
          "duration": 0.21714229687499653
        },
        {
          "name": "G3",
          "midi": 55,
          "time": 76.55429227148421,
          "velocity": 0.5354330708661418,
          "duration": 0.040067923828118523
        },
        {
          "name": "A#3",
          "midi": 58,
          "time": 76.55429227148421,
          "velocity": 0.5354330708661418,
          "duration": 0.040067923828118523
        },
        {
          "name": "F4",
          "midi": 65,
          "time": 76.55429227148421,
          "velocity": 0.6141732283464567,
          "duration": 0.040067923828118523
        },
        {
          "name": "G3",
          "midi": 55,
          "time": 76.6611400683592,
          "velocity": 0.6220472440944882,
          "duration": 0.046099654296881454
        },
        {
          "name": "A#3",
          "midi": 58,
          "time": 76.6611400683592,
          "velocity": 0.6220472440944882,
          "duration": 0.0525622226562632
        },
        {
          "name": "F4",
          "midi": 65,
          "time": 76.6611400683592,
          "velocity": 0.5826771653543307,
          "duration": 0.046099654296881454
        },
        {
          "name": "G#3",
          "midi": 56,
          "time": 76.77401959570297,
          "velocity": 0.7401574803149606,
          "duration": 0.08702925390625182
        },
        {
          "name": "C4",
          "midi": 60,
          "time": 76.77401959570297,
          "velocity": 0.7401574803149606,
          "duration": 0.08702925390625182
        },
        {
          "name": "F4",
          "midi": 65,
          "time": 76.77401959570297,
          "velocity": 0.7007874015748031,
          "duration": 0.08702925390625182
        },
        {
          "name": "F2",
          "midi": 41,
          "time": 76.77401959570297,
          "velocity": 0.6535433070866141,
          "duration": 0.20637134960936976
        },
        {
          "name": "D#3",
          "midi": 51,
          "time": 76.77401959570297,
          "velocity": 0.7637795275590551,
          "duration": 0.21929648632811904
        },
        {
          "name": "G#3",
          "midi": 56,
          "time": 76.9937469199217,
          "velocity": 0.5354330708661418,
          "duration": 0.040067923828118523
        },
        {
          "name": "C4",
          "midi": 60,
          "time": 76.9937469199217,
          "velocity": 0.5354330708661418,
          "duration": 0.040067923828118523
        },
        {
          "name": "F4",
          "midi": 65,
          "time": 76.9937469199217,
          "velocity": 0.6141732283464567,
          "duration": 0.040067923828118523
        },
        {
          "name": "G#3",
          "midi": 56,
          "time": 77.10059471679669,
          "velocity": 0.6220472440944882,
          "duration": 0.04394546484374473
        },
        {
          "name": "C4",
          "midi": 60,
          "time": 77.10059471679669,
          "velocity": 0.6220472440944882,
          "duration": 0.05040803320312648
        },
        {
          "name": "F4",
          "midi": 65,
          "time": 77.10059471679669,
          "velocity": 0.5826771653543307,
          "duration": 0.04394546484374473
        },
        {
          "name": "A3",
          "midi": 57,
          "time": 77.21132005468732,
          "velocity": 0.6299212598425197,
          "duration": 0.08487506445312931
        },
        {
          "name": "C#4",
          "midi": 61,
          "time": 77.21132005468732,
          "velocity": 0.6299212598425197,
          "duration": 0.08487506445312931
        },
        {
          "name": "F4",
          "midi": 65,
          "time": 77.21132005468732,
          "velocity": 0.5905511811023622,
          "duration": 0.08487506445312931
        },
        {
          "name": "G2",
          "midi": 43,
          "time": 77.21132005468732,
          "velocity": 0.6377952755905512,
          "duration": 0.20421716015624725
        },
        {
          "name": "E3",
          "midi": 52,
          "time": 77.21132005468732,
          "velocity": 0.7480314960629921,
          "duration": 0.21714229687499653
        },
        {
          "name": "A3",
          "midi": 57,
          "time": 77.42889318945294,
          "velocity": 0.5354330708661418,
          "duration": 0.08573674023438116
        },
        {
          "name": "C#4",
          "midi": 61,
          "time": 77.42889318945294,
          "velocity": 0.5354330708661418,
          "duration": 0.09909271484374926
        },
        {
          "name": "F4",
          "midi": 65,
          "time": 77.42889318945294,
          "velocity": 0.6141732283464567,
          "duration": 0.09909271484374926
        },
        {
          "name": "A2",
          "midi": 45,
          "time": 77.42889318945294,
          "velocity": 0.6299212598425197,
          "duration": 0.2050788359374991
        },
        {
          "name": "F3",
          "midi": 53,
          "time": 77.42889318945294,
          "velocity": 0.7401574803149606,
          "duration": 0.2050788359374991
        }
      ],
      "controlChanges": {
        "6": [
          {
            "number": 6,
            "time": 0.0017233515625,
            "value": 0.09448818897637795
          },
          {
            "number": 6,
            "time": 0.0017233515625,
            "value": 0.09448818897637795
          }
        ],
        "7": [
          {
            "number": 7,
            "time": 0,
            "value": 0.7952755905511811
          },
          {
            "number": 7,
            "time": 0,
            "value": 0.8031496062992126
          },
          {
            "number": 7,
            "time": 0,
            "value": 0.8661417322834646
          },
          {
            "number": 7,
            "time": 0.00430837890625,
            "value": 0.8031496062992126
          },
          {
            "number": 7,
            "time": 0.00430837890625,
            "value": 0.8661417322834646
          },
          {
            "number": 7,
            "time": 3.1834611738281255,
            "value": 0.8031496062992126
          }
        ],
        "10": [
          {
            "number": 10,
            "time": 0,
            "value": 0.5039370078740157
          }
        ],
        "32": [
          {
            "number": 32,
            "time": 0,
            "value": 0
          }
        ],
        "38": [
          {
            "number": 38,
            "time": 0.002154189453125,
            "value": 0
          },
          {
            "number": 38,
            "time": 0.002154189453125,
            "value": 0
          }
        ],
        "100": [
          {
            "number": 100,
            "time": 0.001292513671875,
            "value": 0
          },
          {
            "number": 100,
            "time": 0.001292513671875,
            "value": 0
          }
        ],
        "101": [
          {
            "number": 101,
            "time": 0.001292513671875,
            "value": 0
          },
          {
            "number": 101,
            "time": 0.001292513671875,
            "value": 0
          }
        ]
      },
      "id": 2,
      "name": "SmartMusic SoftSynth",
      "instrumentNumber": 1,
      "instrument": "bright acoustic piano",
      "instrumentFamily": "piano",
      "channelNumber": 0,
      "isPercussion": false
    }
  ]
}

